<ttFont>
          <CharString index="0">
            vlineto
            -105 callsubr
            return
          </CharString>
          <CharString index="1">
            -100 callsubr
            -102 callsubr
            return
          </CharString>
          <CharString index="2">
            -101 callgsubr
            92 -106 callgsubr
            return
          </CharString>
          <CharString index="3">
            vlineto
            -102 callgsubr
            return
          </CharString>
          <CharString index="4">
            vlineto
            -100 callgsubr
            return
          </CharString>
          <CharString index="5">
            -9 -103 callsubr
            return
          </CharString>
          <CharString index="6">
            -1 callgsubr
            -39 -44 callsubr
            121 -92 callsubr
            return
          </CharString>
          <CharString index="7">
            -94 callgsubr
            hvcurveto
            return
          </CharString>
          <CharString index="8">
            -100 callsubr
            -82 callsubr
            return
          </CharString>
          <CharString index="9">
            -7 -94 callsubr
            return
          </CharString>
          <CharString index="10">
            -90 callgsubr
            hvcurveto
            return
          </CharString>
          <CharString index="11">
            -64 callgsubr
            -85 callsubr
            return
          </CharString>
          <CharString index="12">
            59 -103 callgsubr
            -59 hlineto
            -67 -37 28 78 hvcurveto
            134 vlineto
            78 37 28 67 66 38 -28 -77 vhcurveto
            -96 vlineto
            -91 callsubr
            96 vlineto
            80 return
          </CharString>
          <CharString index="13">
            -80 callgsubr
            vhcurveto
            return
          </CharString>
          <CharString index="14">
            hlineto
            -99 callsubr
            return
          </CharString>
          <CharString index="15">
            -27 callsubr
            53 -103 callgsubr
            -53 hlineto
            return
          </CharString>
          <CharString index="16">
            -98 callsubr
            -90 callsubr
            hvcurveto
            return
          </CharString>
          <CharString index="17">
            -85 callgsubr
            7 return
          </CharString>
          <CharString index="18">
            rmoveto
            19 callgsubr
            -96 hlineto
            15 callsubr
            110 24 vlineto
            75 50 35 91 hvcurveto
            12 39 callsubr
            return
          </CharString>
          <CharString index="19">
            132 callgsubr
            -95 callsubr
            return
          </CharString>
          <CharString index="20">
            5 -82 callgsubr
            return
          </CharString>
          <CharString index="21">
            215 callsubr
            139 callsubr
            hvcurveto
            -83 callgsubr
            return
          </CharString>
          <CharString index="22">
            -14 -89 callgsubr
            return
          </CharString>
          <CharString index="23">
            hlineto
            -79 callsubr
            return
          </CharString>
          <CharString index="24">
            331 callgsubr
            13 hlineto
            4 3 2 4 4 -1 3 -3 9 hvcurveto
            -6 19 -5 19 19 vvcurveto
            35 18 return
          </CharString>
          <CharString index="25">
            -12 -103 callsubr
            return
          </CharString>
          <CharString index="26">
            20 callsubr
            39 hlineto
            112 callgsubr
            -121 12 callsubr
            -53 -93 callsubr
            53 hlineto
            81 53 50 222 callgsubr
            50 229 callgsubr
            return
          </CharString>
          <CharString index="27">
            119 callsubr
            14 -46 callgsubr
            -51 -53 22 80 hvcurveto
            return
          </CharString>
          <CharString index="28">
            -5 -42 callsubr
            return
          </CharString>
          <CharString index="29">
            -99 callgsubr
            -232 vlineto
            -80 -43 -46 callsubr
            53 36 94 hvcurveto
            232 -95 callgsubr
            return
          </CharString>
          <CharString index="30">
            -70 callgsubr
            -192 281 rlineto
            50 -13 callsubr
            return
          </CharString>
          <CharString index="31">
            -1 -79 callgsubr
            return
          </CharString>
          <CharString index="32">
            -77 callgsubr
            91 -106 callgsubr
            return
          </CharString>
          <CharString index="33">
            -3 -5 hvcurveto
            return
          </CharString>
          <CharString index="34">
            7 -40 callsubr
            return
          </CharString>
          <CharString index="35">
            rmoveto
            -7 -5 -3 -6 -3 hvcurveto
            -68 -111 rlineto
            -5 -3 1 -4 258 callgsubr
            5 3 5 4 hvcurveto
            92 112 rlineto
            5 4 -3 4 -5 hhcurveto
            endchar
          </CharString>
          <CharString index="36">
            77 callsubr
            -99 callgsubr
            return
          </CharString>
          <CharString index="37">
            vlineto
            -68 callgsubr
            return
          </CharString>
          <CharString index="38">
            2 3 5 return
          </CharString>
          <CharString index="39">
            78 hlineto
            38 34 8 28 18 hvcurveto
            -75 callsubr
            return
          </CharString>
          <CharString index="40">
            hlineto
            67 33 -25 -68 hvcurveto
            -51 vlineto
            -91 callsubr
            52 173 callgsubr
            vhcurveto
            endchar
          </CharString>
          <CharString index="41">
            rmoveto
            10 hlineto
            9 5 2 7 5 hvcurveto
            64 109 rlineto
            6 4 -1 5 -7 hhcurveto
            -14 hlineto
            -6 -3 -1 -4 -2 hvcurveto
            -59 -105 -59 105 rlineto
            4 -2 -3 1 -6 306 callsubr
            -1 -5 -6 4 hvcurveto
            64 -109 rlineto
            -7 5 5 -2 9 hhcurveto
            return
          </CharString>
          <CharString index="42">
            -47 callgsubr
            273 -103 callgsubr
            return
          </CharString>
          <CharString index="43">
            3 2 7 return
          </CharString>
          <CharString index="44">
            vlineto
            -98 callsubr
            20 hlineto
            -84 callgsubr
            return
          </CharString>
          <CharString index="45">
            -49 -37 -17 -32 -14 hvcurveto
            -4 153 24 callsubr
            return
          </CharString>
          <CharString index="46">
            hlineto
            -51 callsubr
            return
          </CharString>
          <CharString index="47">
            33 -91 callgsubr
            return
          </CharString>
          <CharString index="48">
            -43 callsubr
            -362 33 rmoveto
            -44 callgsubr
            return
          </CharString>
          <CharString index="49">
            -20 -70 callsubr
            return
          </CharString>
          <CharString index="50">
            vlineto
            -71 callgsubr
            return
          </CharString>
          <CharString index="51">
            -42 callgsubr
            72 53 36 94 hvcurveto
            return
          </CharString>
          <CharString index="52">
            vlineto
            68 27 25 67 67 27 -25 -68 vhcurveto
            -89 152 callsubr
            -150 26 callgsubr
            170 -251 rlineto
            -6 4 3 -3 7 hhcurveto
            348 callsubr
            4 2 -1 2 -2 3 hvcurveto
            return
          </CharString>
          <CharString index="53">
            142 callgsubr
            62 -103 callgsubr
            -62 142 callsubr
            return
          </CharString>
          <CharString index="54">
            359 callgsubr
            40 vlineto
            68 31 38 67 vhcurveto
            18 -103 callgsubr
            -18 hlineto
            -81 -47 -50 -83 hvcurveto
            -42 vlineto
            -83 47 return
          </CharString>
          <CharString index="55">
            -5 -2 -3 -7 return
          </CharString>
          <CharString index="56">
            -67 -37 34 callgsubr
            return
          </CharString>
          <CharString index="57">
            81 43 43 83 hvcurveto
            15 -9 callsubr
            -14 256 callgsubr
            125 -18 callgsubr
            102 -106 callgsubr
            return
          </CharString>
          <CharString index="58">
            29 261 605 rmoveto
            4 hlineto
            127 -392 rlineto
            -258 hlineto
            -83 -213 rmoveto
            145 callsubr
            61 -174 rlineto
            -7 2 -80 callgsubr
            hhcurveto
            15 252 callgsubr
            -210 625 230 callgsubr
            -24 241 callsubr
            -210 -625 rlineto
            -7 -2 -80 callgsubr
            hhcurveto
            return
          </CharString>
          <CharString index="59">
            43 callsubr
            -11 vlineto
            -75 -30 -23 -64 10 callgsubr
            return
          </CharString>
          <CharString index="60">
            17 callgsubr
            vlineto
            -76 -43 -27 -48 vhcurveto
            return
          </CharString>
          <CharString index="61">
            -22 -51 vhcurveto
            -16 -93 callsubr
            15 hlineto
            72 return
          </CharString>
          <CharString index="62">
            hlineto
            48 34 14 34 18 hvcurveto
            4 return
          </CharString>
          <CharString index="63">
            hlineto
            -61 callgsubr
            return
          </CharString>
          <CharString index="64">
            -1 callgsubr
            -33 hlineto
            91 callgsubr
            return
          </CharString>
          <CharString index="65">
            -3 -2 -7 return
          </CharString>
          <CharString index="66">
            -83 53 -53 81 vhcurveto
            return
          </CharString>
          <CharString index="67">
            -3 2 -5 return
          </CharString>
          <CharString index="68">
            282 callgsubr
            175 -99 callgsubr
            -110 -474 31 callsubr
            -206 -18 callsubr
            return
          </CharString>
          <CharString index="69">
            -106 callsubr
            77 -15 callsubr
            return
          </CharString>
          <CharString index="70">
            -81 callsubr
            153 296 callsubr
            return
          </CharString>
          <CharString index="71">
            -76 callsubr
            128 -78 callsubr
            return
          </CharString>
          <CharString index="72">
            123 callsubr
            endchar
          </CharString>
          <CharString index="73">
            rmoveto
            -5 -2 -3 -7 vhcurveto
            -224 hlineto
            -12 callsubr
            return
          </CharString>
          <CharString index="74">
            56 339 248 callsubr
            355 callgsubr
            -83 53 -53 81 vhcurveto
            28 vmoveto
            36 callgsubr
            return
          </CharString>
          <CharString index="75">
            rmoveto
            270 callsubr
            46 hlineto
            return
          </CharString>
          <CharString index="76">
            -4 204 28 rmoveto
            120 callsubr
            85 121 callgsubr
            -28 vmoveto
            -14 callsubr
            238 6 callgsubr
            111 callgsubr
            return
          </CharString>
          <CharString index="77">
            171 callsubr
            50 vlineto
            77 -46 36 -68 -70 -44 -36 -76 vhcurveto
            -44 vlineto
            -91 callsubr
            44 vlineto
            61 32 23 52 52 32 -24 -61 vhcurveto
            -50 9 callsubr
            return
          </CharString>
          <CharString index="78">
            182 202 hmoveto
            6 -64 callsubr
            2 hvcurveto
            124 445 rlineto
            4 hlineto
            124 -445 rlineto
            -7 2 3 -2 6 hhcurveto
            21 hlineto
            6 -64 callsubr
            2 hvcurveto
            150 492 291 callsubr
            -16 241 callsubr
            -138 -460 rlineto
            -4 hlineto
            -126 460 rlineto
            8 -2 -4 1 -5 hhcurveto
            -14 304 callsubr
            -128 -460 rlineto
            -4 hlineto
            -138 460 230 callgsubr
            -15 292 callsubr
            150 -492 rlineto
            -7 2 3 -2 6 hhcurveto
            return
          </CharString>
          <CharString index="79">
            -68 -37 -41 -67 vhcurveto
            return
          </CharString>
          <CharString index="80">
            vlineto
            68 37 38 67 vhcurveto
            return
          </CharString>
          <CharString index="81">
            -81 vhcurveto
            -62 callgsubr
            return
          </CharString>
          <CharString index="82">
            79 callsubr
            -135 -27 callgsubr
            -167 hlineto
            -67 -27 31 68 hvcurveto
            49 vlineto
            63 29 33 65 39 callgsubr
            -62 -32 33 63 hvcurveto
            59 284 callgsubr
            -139 vlineto
            -8 -1 -7 -3 -5 vhcurveto
            6 -16 -20 3 -22 hhcurveto
            return
          </CharString>
          <CharString index="83">
            vlineto
            -5 3 -1 2 3 2 2 4 1 vhcurveto
            18 89 rlineto
            5 24 3 14 17 vvcurveto
            return
          </CharString>
          <CharString index="84">
            -17 callgsubr
            137 -95 callgsubr
            return
          </CharString>
          <CharString index="85">
            28 21 callsubr
            -28 vlineto
            -98 callsubr
            return
          </CharString>
          <CharString index="86">
            71 90 136 310 callgsubr
            120 134 callgsubr
            53 vlineto
            196 -358 -90 153 vvcurveto
            58 -49 callgsubr
            120 7 callgsubr
            -29 vlineto
            -91 callsubr
            30 6 callgsubr
            -120 151 callsubr
            -60 vlineto
            -180 358 91 -171 vvcurveto
            -50 -27 callgsubr
            -120 -61 callsubr
            39 -96 callgsubr
            return
          </CharString>
          <CharString index="87">
            41 324 hmoveto
            -14 callsubr
            169 vlineto
            12 -8 7 -10 vhcurveto
            -150 -93 callsubr
            129 -99 callgsubr
            -151 -27 callgsubr
            -110 122 callsubr
            110 125 callsubr
            -110 151 callsubr
            -371 -39 callgsubr
            return
          </CharString>
          <CharString index="88">
            -55 callgsubr
            -131 vlineto
            return
          </CharString>
          <CharString index="89">
            hlineto
            -16 callgsubr
            return
          </CharString>
          <CharString index="90">
            vlineto
            -58 -27 -21 -67 vhcurveto
            -96 -12 callgsubr
            return
          </CharString>
          <CharString index="91">
            251 callsubr
            -4 vlineto
            0 -40 -37 -52 -57 vhcurveto
            -93 -102 -20 callgsubr
            15 167 callgsubr
            125 140 92 102 rlineto
            4 -216 -35 callsubr
          </CharString>
          <CharString index="92">
            92 callgsubr
            -3 callsubr
            return
          </CharString>
          <CharString index="93">
            81 53 53 83 hvcurveto
            return
          </CharString>
          <CharString index="94">
            hlineto
            72 52 37 94 hvcurveto
            61 callgsubr
            return
          </CharString>
          <CharString index="95">
            -5 -3 2 7 hvcurveto
            242 -71 callsubr
            return
          </CharString>
          <CharString index="96">
            hlineto
            5 -1 2 -3 -4 vvcurveto
            return
          </CharString>
          <CharString index="97">
            163 callsubr
            206 199 callgsubr
            -444 rmoveto
            63 29 26 26 14 hvcurveto
            4 -78 hlineto
            -28 callsubr
            -179 -93 callsubr
            179 134 callgsubr
            498 -53 callgsubr
            -206 151 callsubr
            -208 -39 callgsubr
            return
          </CharString>
          <CharString index="98">
            vlineto
            77 -26 36 -68 -70 -24 -36 -76 vhcurveto
            -14 vlineto
            -91 callsubr
            14 vlineto
            61 12 23 52 52 12 -24 -61 vhcurveto
            return
          </CharString>
          <CharString index="99">
            -91 callsubr
            581 -95 callgsubr
            return
          </CharString>
          <CharString index="100">
            21 callgsubr
            hvcurveto
            return
          </CharString>
          <CharString index="101">
            -81 -53 -53 -83 hvcurveto
            return
          </CharString>
          <CharString index="102">
            hhcurveto
            -62 callgsubr
            return
          </CharString>
          <CharString index="103">
            -21 callgsubr
            -121 hlineto
            -100 callsubr
            -95 vlineto
            40 callgsubr
            return
          </CharString>
          <CharString index="104">
            vlineto
            -91 callsubr
            111 -95 callgsubr
            return
          </CharString>
          <CharString index="105">
            -60 callsubr
            128 -78 callsubr
            return
          </CharString>
          <CharString index="106">
            -10 callgsubr
            -223 -24 callsubr
            return
          </CharString>
          <CharString index="107">
            hlineto
            72 52 37 94 hvcurveto
            90 vlineto
            83 -43 37 -81 -81 -43 -37 -83 vhcurveto
            return
          </CharString>
          <CharString index="108">
            80 callgsubr
            92 -95 callgsubr
            308 hlineto
            7 332 callsubr
            127 6 callgsubr
            return
          </CharString>
          <CharString index="109">
            33 129 299 219 callsubr
            300 -95 callgsubr
            194 7 callgsubr
            -98 -27 callgsubr
            -211 -299 196 callgsubr
            254 298 callsubr
            122 -262 rlineto
            -7 4 3 -2 6 hhcurveto
            18 hlineto
            -76 callgsubr
            6 -3 hvcurveto
            -123 260 rlineto
            4 vlineto
            68 9 43 50 75 vvcurveto
            100 6 callgsubr
            -225 -89 callgsubr
            -625 vlineto
            -98 callsubr
            return
          </CharString>
          <CharString index="110">
            rlineto
            -42 -19 -24 -28 -37 vvcurveto
            -29 13 -26 29 -29 vhcurveto
            -4 4 2 -1 3 hhcurveto
            3 3 359 callsubr
            4 4 rlineto
            4 4 0 2 2 vvcurveto
            2 -1 2 -3 3 vhcurveto
            -22 22 -12 17 27 vvcurveto
            28 19 return
          </CharString>
          <CharString index="111">
            -49 callgsubr
            150 -17 callgsubr
            return
          </CharString>
          <CharString index="112">
            -46 hlineto
            -100 callsubr
            return
          </CharString>
          <CharString index="113">
            -83 53 33 callsubr
            return
          </CharString>
          <CharString index="114">
            rmoveto
            -38 callsubr
            return
          </CharString>
          <CharString index="115">
            -61 callgsubr
            272 36 callsubr
            return
          </CharString>
          <CharString index="116">
            vlineto
            18 callsubr
            return
          </CharString>
          <CharString index="117">
            166 callgsubr
            -22 vlineto
            262 callsubr
            78 hlineto
            67 30 -19 -58 hvcurveto
            -47 vlineto
            -58 -34 -21 -62 vhcurveto
            -92 hlineto
            -56 -30 244 callsubr
            46 -33 70 vhcurveto
            92 hlineto
            75 51 33 73 hvcurveto
            49 vlineto
            73 -46 31 -81 vhcurveto
            -78 242 callgsubr
            20 134 callsubr
            159 -23 callsubr
            90 -106 callgsubr
            return
          </CharString>
          <CharString index="118">
            53 -17 -48 17 -52 hhcurveto
            -81 -53 -40 -93 hvcurveto
            return
          </CharString>
          <CharString index="119">
            vlineto
            16 callgsubr
            return
          </CharString>
          <CharString index="120">
            rmoveto
            -104 callgsubr
            return
          </CharString>
          <CharString index="121">
            vlineto
            -98 callgsubr
            return
          </CharString>
          <CharString index="122">
            -72 -42 43 73 hvcurveto
            return
          </CharString>
          <CharString index="123">
            -5 -3 2 7 69 callsubr
            return
          </CharString>
          <CharString index="124">
            46 344 hmoveto
            165 callsubr
            -130 122 callsubr
            130 125 callsubr
            -130 151 callsubr
            -371 -39 callgsubr
            return
          </CharString>
          <CharString index="125">
            -80 -43 -22 -51 vhcurveto
            return
          </CharString>
          <CharString index="126">
            rmoveto
            23 callgsubr
            return
          </CharString>
          <CharString index="127">
            65 38 36 66 vhcurveto
            return
          </CharString>
          <CharString index="128">
            -53 callgsubr
            -20 -89 callgsubr
            return
          </CharString>
          <CharString index="129">
            67 37 -41 -68 hvcurveto
            return
          </CharString>
          <CharString index="130">
            -45 callgsubr
            199 -99 callgsubr
            return
          </CharString>
          <CharString index="131">
            hlineto
            -101 callgsubr
            return
          </CharString>
          <CharString index="132">
            -75 callsubr
            endchar
          </CharString>
          <CharString index="133">
            68 callsubr
            -144 151 callsubr
            return
          </CharString>
          <CharString index="134">
            -10 callgsubr
            -119 vlineto
            74 callgsubr
            return
          </CharString>
          <CharString index="135">
            rlineto
            28 callgsubr
            return
          </CharString>
          <CharString index="136">
            234 callsubr
            -44 vlineto
            -58 -27 -21 -67 vhcurveto
            -91 218 callgsubr
            26 45 callgsubr
            -5 -3 -2 -7 hvcurveto
            -190 vlineto
            -98 callsubr
            12 hlineto
            -84 callgsubr
            83 4 vlineto
            -28 18 34 -8 38 hhcurveto
            91 hlineto
            81 43 33 73 hvcurveto
            46 vlineto
            73 -43 31 -81 vhcurveto
            -87 289 callsubr
            165 67 callgsubr
            90 -106 callgsubr
            return
          </CharString>
          <CharString index="137">
            7 149 callgsubr
            return
          </CharString>
          <CharString index="138">
            233 callsubr
            492 -53 callgsubr
            return
          </CharString>
          <CharString index="139">
            -104 35 241 callgsubr
            305 hlineto
            132 callsubr
            4 hlineto
            274 450 rlineto
            2 3 0 3 2 vvcurveto
            -97 callgsubr
            -293 -93 callsubr
            262 -4 hlineto
            -275 -452 rlineto
            -2 -3 0 -2 -4 vvcurveto
            return
          </CharString>
          <CharString index="140">
            -50 81 vhcurveto
            return
          </CharString>
          <CharString index="141">
            196 callsubr
            42 -54 callsubr
            return
          </CharString>
          <CharString index="142">
            hlineto
            -102 -133 -43 callgsubr
            -102 133 rlineto
            return
          </CharString>
          <CharString index="143">
            -95 callgsubr
            236 -99 callgsubr
            return
          </CharString>
          <CharString index="144">
            221 callsubr
            -6 4 2 -2 6 hhcurveto
            10 257 callsubr
            63 callgsubr
            return
          </CharString>
          <CharString index="145">
            63 31 -20 -56 -59 -30 -24 213 callgsubr
            -28 vlineto
            -101 53 -55 91 vhcurveto
            66 194 callgsubr
            return
          </CharString>
          <CharString index="146">
            vlineto
            42 -10 32 51 callgsubr
            return
          </CharString>
          <CharString index="147">
            -94 53 -36 72 vhcurveto
            22 callgsubr
            return
          </CharString>
          <CharString index="148">
            102 hmoveto
            5 3 2 7 hvcurveto
            369 vlineto
            69 47 35 65 vhcurveto
            72 87 callgsubr
            -74 hlineto
            -63 -29 -26 -26 -14 hvcurveto
            -4 return
          </CharString>
          <CharString index="149">
            hlineto
            -23 callgsubr
            12 12 2 2 7 hvcurveto
            -4 vlineto
            0 -41 -40 -47 -52 vhcurveto
            -94 254 callgsubr
            15 167 callgsubr
            147 163 return
          </CharString>
          <CharString index="150">
            69 25 -29 -66 hvcurveto
            return
          </CharString>
          <CharString index="151">
            -61 callgsubr
            234 vlineto
            248 -287 rlineto
            -29 -25 -31 -24 -42 hhcurveto
            return
          </CharString>
          <CharString index="152">
            -91 callsubr
            492 -96 callgsubr
            return
          </CharString>
          <CharString index="153">
            75 callgsubr
            -127 hlineto
            return
          </CharString>
          <CharString index="154">
            21 callgsubr
            45 -35 24 -42 22 hvcurveto
            -74 39 rlineto
            -33 18 -28 14 57 vvcurveto
            8 -96 callgsubr
            -8 vlineto
            -58 22 -28 52 -27 vhcurveto
            69 -36 rlineto
            61 -32 8 -15 -23 vvcurveto
            return
          </CharString>
          <CharString index="155">
            hlineto
            120 callsubr
            return
          </CharString>
          <CharString index="156">
            57 callsubr
            -492 vlineto
            -98 callsubr
            return
          </CharString>
          <CharString index="157">
            4 4 4 5 4 vvcurveto
            3 -1 2 -2 2 vhcurveto
            return
          </CharString>
          <CharString index="158">
            -107 355 20 rmoveto
            -102 callgsubr
            -142 48 callsubr
            142 hlineto
            155 callsubr
            142 hlineto
            -90 callgsubr
            hvcurveto
            return
          </CharString>
          <CharString index="159">
            170 54 callsubr
            -245 -144 54 callsubr
            -321 309 -91 callgsubr
            435 -99 callgsubr
            -140 vlineto
            -4 -1 -3 -7 -1 vhcurveto
            -49 -6 -35 -24 -16 -40 rrcurveto
            46 -18 -41 25 -60 236 callsubr
            77 -43 42 -71 9 vhcurveto
            -7 1 -1 3 4 vvcurveto
            308 callgsubr
            193 -106 callgsubr
            endchar
          </CharString>
          <CharString index="160">
            -68 callsubr
            endchar
          </CharString>
          <CharString index="161">
            rmoveto
            -68 -37 -33 -67 vhcurveto
            -7 hlineto
            -67 -37 33 68 hvcurveto
            144 vlineto
            68 37 33 67 vhcurveto
            7 hlineto
            67 37 -33 -68 hvcurveto
            return
          </CharString>
          <CharString index="162">
            24 23 108 callsubr
            -3 3 rlineto
            3 -3 -2 1 -3 hhcurveto
            -4 333 callgsubr
            hvcurveto
            -27 -27 return
          </CharString>
          <CharString index="163">
            623 140 callsubr
            return
          </CharString>
          <CharString index="164">
            hlineto
            -96 callsubr
            return
          </CharString>
          <CharString index="165">
            76 callsubr
            231 -243 rlineto
            -32 -16 return
          </CharString>
          <CharString index="166">
            503 -91 callgsubr
            return
          </CharString>
          <CharString index="167">
            rmoveto
            -61 callgsubr
            124 vlineto
            253 -229 rlineto
            -1 -2 -3 0 -2 hhcurveto
            10 259 175 callgsubr
            -222 vlineto
            -256 230 rlineto
            0 vlineto
            -124 25 -91 callgsubr
            76 -99 callgsubr
            -146 vlineto
            -57 25 -38 36 -19 vhcurveto
            -4 vlineto
            -43 -13 -27 -42 -68 vvcurveto
            -74 vlineto
            -83 55 -55 81 vhcurveto
            return
          </CharString>
          <CharString index="168">
            -106 callsubr
            337 67 callsubr
            130 callsubr
            return
          </CharString>
          <CharString index="169">
            -44 callsubr
            132 -27 callsubr
            -32 callgsubr
            131 callsubr
            return
          </CharString>
          <CharString index="170">
            135 callsubr
            596 110 callsubr
            return
          </CharString>
          <CharString index="171">
            vlineto
            -5 -2 -3 -7 vhcurveto
            -189 -72 callgsubr
            188 -99 callgsubr
            return
          </CharString>
          <CharString index="172">
            82 callgsubr
            vlineto
            return
          </CharString>
          <CharString index="173">
            -98 vlineto
            -59 26 -43 44 -21 vhcurveto
            -30 -14 -27 -29 -47 vvcurveto
            -11 vlineto
            -78 43 -38 81 vhcurveto
            65 hlineto
            81 51 47 83 hvcurveto
            221 45 callgsubr
            -5 -3 -2 -7 hvcurveto
            -30 102 callsubr
            -78 -61 callsubr
            96 -49 callgsubr
            166 -23 callsubr
            return
          </CharString>
          <CharString index="174">
            46 callsubr
            -81 -53 -53 -83 hvcurveto
            return
          </CharString>
          <CharString index="175">
            -106 callsubr
            354 -2 callgsubr
            return
          </CharString>
          <CharString index="176">
            hvcurveto
            242 -95 callgsubr
            return
          </CharString>
          <CharString index="177">
            175 callgsubr
            -339 352 callgsubr
            -96 hlineto
            15 callsubr
            110 -63 callgsubr
            vlineto
            return
          </CharString>
          <CharString index="178">
            -40 274 callgsubr
            -10 -103 callsubr
            19 hlineto
            52 27 16 41 hvcurveto
            10 vlineto
            42 -27 15 -52 vhcurveto
            4 vlineto
            return
          </CharString>
          <CharString index="179">
            vlineto
            94 -53 36 -72 vhcurveto
            -93 107 callgsubr
            hlineto
            51 43 -22 -80 hvcurveto
            return
          </CharString>
          <CharString index="180">
            -7 callsubr
            100 -49 callgsubr
            88 7 callgsubr
            return
          </CharString>
          <CharString index="181">
            rmoveto
            -28 callsubr
            -125 hlineto
            -46 -32 19 35 -15 hvcurveto
            321 446 rlineto
            1 -7 0 -7 -8 vvcurveto
            -333 hmoveto
            68 37 41 67 vhcurveto
            125 hlineto
            46 32 -19 -34 15 hvcurveto
            -321 -446 rlineto
            -1 7 0 7 7 vvcurveto
            384 496 rmoveto
            -5 3 -4 -1 -4 -6 -30 -41 rcurveline
            35 -23 -39 20 -50 hhcurveto
            355 callgsubr
            -19 3 -17 5 -16 vhcurveto
            -39 -54 -4 -6 0 -5 4 -3 rlinecurve
            9 -6 5 -3 4 1 4 5 rlinecurve
            31 43 rlineto
            -36 22 40 -20 50 hhcurveto
            125 134 callgsubr
            371 vlineto
            19 -3 18 -5 16 vhcurveto
            38 53 4 5 1 5 -5 4 rlinecurve
            endchar
          </CharString>
          <CharString index="182">
            rmoveto
            16 callsubr
            return
          </CharString>
          <CharString index="183">
            120 60 callgsubr
            return
          </CharString>
          <CharString index="184">
            -95 callgsubr
            223 return
          </CharString>
          <CharString index="185">
            hlineto
            -7 callsubr
            30 72 callsubr
            -114 -56 callsubr
            40 -95 callgsubr
            return
          </CharString>
          <CharString index="186">
            -91 callgsubr
            39 249 callsubr
            return
          </CharString>
          <CharString index="187">
            rmoveto
            170 callgsubr
            -85 hlineto
            -51 -34 24 41 -13 hvcurveto
            287 288 rlineto
            -293 -244 rmoveto
            363 callgsubr
            51 34 -24 -41 13 hvcurveto
            -287 -287 rlineto
            364 353 rmoveto
            -3 3 -4 1 -5 -5 -42 -42 rcurveline
            44 -21 -43 26 -57 354 callsubr
            -12 1 -11 2 -10 vhcurveto
            -54 -54 -5 -5 1 -3 4 -4 rlinecurve
            10 -9 3 -4 4 -1 5 5 rlinecurve
            42 43 rlineto
            -45 21 43 -26 57 hhcurveto
            85 134 callgsubr
            238 vlineto
            12 -1 11 -2 11 vhcurveto
            53 53 5 5 0 3 -4 4 rlinecurve
            endchar
          </CharString>
          <CharString index="188">
            hvcurveto
            12 -53 callgsubr
            return
          </CharString>
          <CharString index="189">
            -76 callsubr
            123 104 callsubr
            345 callsubr
            185 vlineto
            83 -43 40 -81 vhcurveto
            -39 -4 callgsubr
            39 249 callsubr
            -183 -27 callgsubr
            -167 hlineto
            -67 -27 31 68 hvcurveto
            49 vlineto
            63 29 33 65 39 callgsubr
            -62 -32 33 63 hvcurveto
            59 99 callsubr
            return
          </CharString>
          <CharString index="190">
            -93 callsubr
            endchar
          </CharString>
          <CharString index="191">
            hhcurveto
            171 callgsubr
            return
          </CharString>
          <CharString index="192">
            598 rmoveto
            -105 callgsubr
            return
          </CharString>
          <CharString index="193">
            38 callgsubr
            66 callsubr
            81 -106 callgsubr
            endchar
          </CharString>
          <CharString index="194">
            146 callgsubr
            68 -41 36 -68 vhcurveto
            return
          </CharString>
          <CharString index="195">
            7 callsubr
            223 return
          </CharString>
          <CharString index="196">
            rlineto
            100 callgsubr
            -16 41 callgsubr
            return
          </CharString>
          <CharString index="197">
            vlineto
            58 27 19 67 vhcurveto
            129 -17 callgsubr
            107 -95 callgsubr
            return
          </CharString>
          <CharString index="198">
            rlineto
            -5 -3 -2 -2 -3 vvcurveto
            -2 1 -2 1 -2 vhcurveto
            6 -9 rlineto
            -3 2 2 -1 3 hhcurveto
            3 4 2 2 3 hvcurveto
            return
          </CharString>
          <CharString index="199">
            25 -53 callgsubr
            return
          </CharString>
          <CharString index="200">
            rmoveto
            -71 callgsubr
            return
          </CharString>
          <CharString index="201">
            rmoveto
            -44 26 -37 39 66 vvcurveto
            73 28 25 71 71 24 -25 -73 -52 -26 -51 -60 -39 vhcurveto
            -4 -3 rlineto
            226 268 rmoveto
            216 callsubr
            -372 vlineto
            -182 106 rlineto
            44 30 48 47 83 vvcurveto
            92 -47 32 -78 -84 -44 -32 -91 -80 44 -47 54 -32 vhcurveto
            7 -4 return
          </CharString>
          <CharString index="202">
            hlineto
            38 callsubr
            return
          </CharString>
          <CharString index="203">
            19 callgsubr
            -66 hlineto
            -78 -36 44 92 hvcurveto
            24 hlineto
            75 50 30 81 61 -35 return
          </CharString>
          <CharString index="204">
            rmoveto
            100 callsubr
          </CharString>
          <CharString index="205">
            rlineto
            -2 -3 -2 -3 -3 161 callsubr
            return
          </CharString>
          <CharString index="206">
            vlineto
            66 25 33 64 vhcurveto
            return
          </CharString>
          <CharString index="207">
            -106 callsubr
            92 -99 callgsubr
            -422 347 callgsubr
            hlineto
            320 callsubr
            -67 -37 41 68 hvcurveto
            421 356 callsubr
            -3 -5 hvcurveto
            -167 vlineto
            -80 -43 -22 -51 321 callgsubr
            45 115 callgsubr
            167 -95 callgsubr
            67 -106 callgsubr
            endchar
          </CharString>
          <CharString index="208">
            vlineto
            -55 18 -34 47 -17 vhcurveto
            return
          </CharString>
          <CharString index="209">
            vlineto
            -61 -31 -28 -63 vhcurveto
            return
          </CharString>
          <CharString index="210">
            hlineto
            7 2 -3 -5 hvcurveto
            -68 vlineto
            -68 -29 -14 -48 vhcurveto
            -74 hlineto
            -81 -53 -53 -83 hvcurveto
            159 callgsubr
            return
          </CharString>
          <CharString index="211">
            114 callgsubr
            -51 266 callsubr
            return
          </CharString>
          <CharString index="212">
            622 rmoveto
            -50 25 -19 49 vhcurveto
            14 hlineto
            49 27 19 50 hvcurveto
            42 vlineto
            50 -27 18 -49 vhcurveto
            -14 hlineto
            -49 -25 -18 -50 hvcurveto
            24 -1 rmoveto
            36 15 10 35 vhcurveto
            14 hlineto
            36 15 -10 -36 hvcurveto
            -40 vlineto
            -37 -15 -10 -36 vhcurveto
            -14 hlineto
            -35 -15 10 37 hvcurveto
            return
          </CharString>
          <CharString index="213">
            rmoveto
            4 5 1 2 6 vvcurveto
            16 vlineto
            7 -5 5 -6 -7 vhcurveto
            -133 -138 rlineto
            -5 -6 -4 -3 -10 vvcurveto
            -14 vlineto
            -10 4 -3 5 -6 vhcurveto
            133 -138 rlineto
            6 -7 5 5 7 vvcurveto
            16 vlineto
            6 -1 2 -4 5 vhcurveto
            -125 130 rlineto
            return
          </CharString>
          <CharString index="214">
            rmoveto
            -91 callsubr
            return
          </CharString>
          <CharString index="215">
            hvcurveto
            50 callsubr
            return
          </CharString>
          <CharString index="216">
            hlineto
            -21 callgsubr
            return
          </CharString>
          <CharString index="217">
            -96 callgsubr
            -625 vlineto
            -98 callsubr
            return
          </CharString>
          <CharString index="218">
            vlineto
            62 -33 48 -51 13 vhcurveto
            4 vlineto
            29 17 12 23 51 vvcurveto
            return
          </CharString>
          <CharString index="219">
            rmoveto
            -35 -17 20 37 hvcurveto
            20 vlineto
            36 17 20 35 vhcurveto
            10 hlineto
            36 17 -20 -36 hvcurveto
            -20 vlineto
            -37 -17 -20 -36 vhcurveto
            -23 vmoveto
            49 29 29 50 hvcurveto
            22 vlineto
            50 -29 28 -49 vhcurveto
            -10 hlineto
            -49 -27 -28 -50 hvcurveto
            -22 vlineto
            -50 27 -29 49 vhcurveto
            endchar
          </CharString>
          <CharString index="220">
            hlineto
            9 7 8 10 hvcurveto
            117 158 callsubr
          </CharString>
          <CharString index="221">
            vlineto
            6 callsubr
            46 hlineto
            return
          </CharString>
          <CharString index="222">
            rmoveto
            -81 -36 -38 -83 hvcurveto
            -50 vlineto
            -83 36 -39 81 vhcurveto
            16 hlineto
            81 35 39 83 hvcurveto
            50 vlineto
            83 -35 38 -81 vhcurveto
            -28 vmoveto
            67 19 -26 -68 hvcurveto
            -48 vlineto
            -68 -19 -27 -67 vhcurveto
            -16 hlineto
            -67 -20 27 68 hvcurveto
            48 vlineto
            68 20 26 67 vhcurveto
            return
          </CharString>
          <CharString index="223">
            241 callgsubr
            332 -103 callgsubr
            -311 70 hlineto
            40 16 27 34 26 vhcurveto
            202 151 rlineto
            38 28 26 46 51 vvcurveto
            43 169 callsubr
            -82 hlineto
            -81 -53 -50 -83 160 callsubr
            48 -27 callsubr
            82 hlineto
            112 callgsubr
            -41 vlineto
            -44 -19 -36 -34 -25 vhcurveto
            -200 -149 rlineto
            -39 -28 -24 -38 -54 vvcurveto
            endchar
          </CharString>
          <CharString index="224">
            135 callgsubr
            -275 -93 callsubr
            125 return
          </CharString>
          <CharString index="225">
            -99 callgsubr
            -272 vlineto
            return
          </CharString>
          <CharString index="226">
            -94 63 -36 72 vhcurveto
            return
          </CharString>
          <CharString index="227">
            -51 callsubr
            236 -49 callgsubr
            return
          </CharString>
          <CharString index="228">
            -27 callgsubr
            182 callsubr
            return
          </CharString>
          <CharString index="229">
            hlineto
            96 callgsubr
            return
          </CharString>
          <CharString index="230">
            hlineto
            -8 callsubr
            93 -106 callgsubr
            return
          </CharString>
          <CharString index="231">
            -67 -27 19 58 hvcurveto
            5 90 callsubr
            return
          </CharString>
          <CharString index="232">
            hlineto
            67 37 -41 -68 160 callsubr
            50 6 callgsubr
            return
          </CharString>
          <CharString index="233">
            80 43 22 51 vhcurveto
            return
          </CharString>
          <CharString index="234">
            371 6 callgsubr
            return
          </CharString>
          <CharString index="235">
            44 vhcurveto
            27 -106 callgsubr
            return
          </CharString>
          <CharString index="236">
            -91 callgsubr
            345 -99 callgsubr
            return
          </CharString>
          <CharString index="237">
            -127 -39 callgsubr
            return
          </CharString>
          <CharString index="238">
            -134 vlineto
            6 callsubr
            return
          </CharString>
          <CharString index="239">
            -104 callgsubr
            -273 return
          </CharString>
          <CharString index="240">
            hhcurveto
            -7 hlineto
            -81 -53 -46 -83 hvcurveto
            -145 vlineto
            -83 53 -45 81 vhcurveto
            7 hlineto
            59 42 24 46 18 hvcurveto
            -46 18 42 -24 59 hhcurveto
            7 hlineto
            return
          </CharString>
          <CharString index="241">
            vlineto
            58 27 20 67 vhcurveto
            return
          </CharString>
          <CharString index="242">
            141 callsubr
            -284 hlineto
            -7 callsubr
            return
          </CharString>
          <CharString index="243">
            28 callsubr
            16 hlineto
            7 5 332 callgsubr
            return
          </CharString>
          <CharString index="244">
            307 callsubr
            498 -96 callgsubr
            -497 vlineto
            -68 -37 -41 -67 vhcurveto
            -20 -93 callsubr
            return
          </CharString>
          <CharString index="245">
            65 callsubr
            139 callgsubr
            return
          </CharString>
          <CharString index="246">
            -20 6 -27 8 -24 return
          </CharString>
          <CharString index="247">
            -91 callgsubr
            89 122 callgsubr
            -224 hlineto
            87 callsubr
            return
          </CharString>
          <CharString index="248">
            -97 callsubr
            14 -104 callsubr
            return
          </CharString>
          <CharString index="249">
            hlineto
            -62 -32 33 63 hvcurveto
            return
          </CharString>
          <CharString index="250">
            -106 callsubr
            345 -99 callgsubr
            -109 -57 callsubr
            -142 hlineto
            -81 -43 -32 -73 hvcurveto
            -17 vlineto
            262 callsubr
            return
          </CharString>
          <CharString index="251">
            150 callsubr
            -61 -29 -38 return
          </CharString>
          <CharString index="252">
            -86 callgsubr
            3 hvcurveto
            61 174 rlineto
            280 hlineto
            return
          </CharString>
          <CharString index="253">
            hlineto
            7 5 223 callsubr
            return
          </CharString>
          <CharString index="254">
            -106 callsubr
            351 203 callsubr
            return
          </CharString>
          <CharString index="255">
            119 callgsubr
            685 vlineto
            97 callgsubr
            return
          </CharString>
          <CharString index="256">
            vhcurveto
            -130 -93 callsubr
            return
          </CharString>
          <CharString index="257">
            -98 callgsubr
            -214 -57 callsubr
            -189 hlineto
            return
          </CharString>
          <CharString index="258">
            hlineto
            -6 callsubr
            return
          </CharString>
          <CharString index="259">
            vlineto
            103 callgsubr
            return
          </CharString>
          <CharString index="260">
            -55 11 -23 45 28 16 8 55 15 vhcurveto
            return
          </CharString>
          <CharString index="261">
            6 41 callsubr
            236 hlineto
            97 callgsubr
            return
          </CharString>
          <CharString index="262">
            -104 callgsubr
            -142 -18 callsubr
            return
          </CharString>
          <CharString index="263">
            rmoveto
            4 5 4 5 5 vvcurveto
            3 -1 1 -2 2 vhcurveto
            -5 4 rlineto
            2 -3 -1 1 -4 hhcurveto
            -4 -3 -5 -4 -4 hvcurveto
            return
          </CharString>
          <CharString index="264">
            hlineto
            -46 -21 16 27 -27 hvcurveto
            4 -4 -4 4 -4 hhcurveto
            -3 -2 -1 -3 -3 hvcurveto
            -3 -3 rlineto
            -2 -2 -1 -2 -3 vvcurveto
            -4 4 -5 4 -4 vhcurveto
            -24 23 30 -28 59 hhcurveto
            return
          </CharString>
          <CharString index="265">
            -95 callgsubr
            105 -106 callgsubr
            endchar
          </CharString>
          <CharString index="266">
            59 30 28 55 callsubr
            -21 -16 -46 hhcurveto
            return
          </CharString>
          <CharString index="267">
            hvcurveto
            -49 vlineto
            -91 callsubr
            return
          </CharString>
          <CharString index="268">
            vvcurveto
            -5 -94 callsubr
            return
          </CharString>
          <CharString index="269">
            -77 20 -46 84 39 callgsubr
            -66 -8 37 58 64 17 33 66 hvcurveto
            42 hlineto
            107 19 -93 -100 46 hvcurveto
            -5 2 3 -2 3 349 callsubr
            1 2 hvcurveto
            7 4 rlineto
            4 2 1 3 2 vvcurveto
            1 -1 4 -2 4 vhcurveto
            78 -36 -30 128 -129 hhcurveto
            return
          </CharString>
          <CharString index="270">
            rmoveto
            50 callgsubr
            return
          </CharString>
          <CharString index="271">
            vlineto
            69 47 35 65 vhcurveto
            72 7 callgsubr
            return
          </CharString>
          <CharString index="272">
            -14 callsubr
            50 -96 callgsubr
            -49 -27 callgsubr
            return
          </CharString>
          <CharString index="273">
            28 callsubr
            16 hlineto
            9 6 332 callgsubr
            return
          </CharString>
          <CharString index="274">
            -60 callsubr
            316 -11 callsubr
            223 callgsubr
            return
          </CharString>
          <CharString index="275">
            348 callgsubr
            201 callsubr
            return
          </CharString>
          <CharString index="276">
            vlineto
            215 callgsubr
            return
          </CharString>
          <CharString index="277">
            rmoveto
            74 callgsubr
            223 vlineto
            5 -3 1 -2 -3 -2 -2 -4 -1 vhcurveto
            -18 -89 rlineto
            -5 -24 -3 -14 -17 vvcurveto
            return
          </CharString>
          <CharString index="278">
            99 vlineto
            20 callgsubr
            return
          </CharString>
          <CharString index="279">
            vlineto
            68 33 25 67 return
          </CharString>
          <CharString index="280">
            61 90 9 rmoveto
            -98 callsubr
            246 134 callgsubr
            127 callsubr
            -246 -89 callgsubr
            39 -606 219 callsubr
            571 -95 callgsubr
            215 7 callgsubr
            -369 -27 callgsubr
            return
          </CharString>
          <CharString index="281">
            vlineto
            222 callsubr
            return
          </CharString>
          <CharString index="282">
            -26 -16 -18 -27 -44 vvcurveto
            -83 43 -43 81 vhcurveto
            110 134 callgsubr
            112 vlineto
            21 25 11 36 43 vvcurveto
            86 vlineto
            46 -13 33 -26 20 vhcurveto
            5 8 2 11 13 vvcurveto
            102 -95 callgsubr
            104 -106 callgsubr
            endchar
          </CharString>
          <CharString index="283">
            203 callgsubr
            -36 -36 -30 -10 -48 hhcurveto
            return
          </CharString>
          <CharString index="284">
            623 101 callgsubr
            return
          </CharString>
          <CharString index="285">
            -95 callgsubr
            129 -103 callgsubr
            -129 hlineto
            -7 callsubr
            78 -96 callgsubr
            -78 201 callgsubr
            return
          </CharString>
          <CharString index="286">
            7 2 -3 -5 hvcurveto
            -214 64 callsubr
            return
          </CharString>
          <CharString index="287">
            243 callgsubr
            -55 18 -34 47 -17 vhcurveto
            -4 vlineto
            return
          </CharString>
          <CharString index="288">
            rmoveto
            -45 callgsubr
            return
          </CharString>
          <CharString index="289">
            -117 hlineto
            196 callsubr
            return
          </CharString>
          <CharString index="290">
            hlineto
            -49 -37 -17 -32 -14 hvcurveto
            -4 return
          </CharString>
          <CharString index="291">
            8 -24 141 callgsubr
            return
          </CharString>
          <CharString index="292">
            -130 109 hmoveto
            7 5 2 7 2 hvcurveto
            221 602 rlineto
            2 5 1 3 6 vvcurveto
            10 297 callgsubr
            290 hlineto
            -221 -601 rlineto
            -7 -3 1 -7 8 hhcurveto
            endchar
          </CharString>
          <CharString index="293">
            134 vlineto
            209 callgsubr
            return
          </CharString>
          <CharString index="294">
            rmoveto
            216 callsubr
            -354 337 callsubr
            return
          </CharString>
          <CharString index="295">
            -93 callsubr
            27 hlineto
            51 43 -22 -80 hvcurveto
            -79 9 callsubr
            -117 hlineto
            275 callgsubr
            72 53 36 94 hvcurveto
            79 vlineto
            46 -13 35 -30 17 vhcurveto
            4 return
          </CharString>
          <CharString index="296">
            319 callgsubr
            -6 151 callgsubr
            -100 -61 callsubr
            79 282 callsubr
            293 callgsubr
            237 callsubr
          </CharString>
          <CharString index="297">
            -103 callgsubr
            endchar
          </CharString>
          <CharString index="298">
            hhcurveto
            250 callsubr
            return
          </CharString>
          <CharString index="299" raw="1">
            5d068489 0b  
          </CharString>
          <CharString index="300">
            rrcurveto
            -7 3 -80 callgsubr
            hhcurveto
            13 hlineto
            4 3 2 4 4 return
          </CharString>
          <CharString index="301">
            37 -38 -68 hvcurveto
            return
          </CharString>
          <CharString index="302">
            107 148 callsubr
            return
          </CharString>
          <CharString index="303">
            -67 -35 31 68 hvcurveto
            return
          </CharString>
          <CharString index="304">
            vhcurveto
            146 -3 rlineto
            141 callsubr
            -146 -5 4 174 rlineto
            -96 callsubr
            4 -174 -146 5 rlineto
            266 callgsubr
            return
          </CharString>
          <CharString index="305">
            hlineto
            270 callsubr
            return
          </CharString>
          <CharString index="306">
            315 callgsubr
            6 5 hvcurveto
            return
          </CharString>
          <CharString index="307">
            rmoveto
            303 callsubr
            182 182 rlineto
            4 4 5 5 6 vvcurveto
            2 -1 3 -3 3 vhcurveto
            -3 3 rlineto
            2 -2 -2 1 -3 hhcurveto
            -4 -3 -2 -4 -4 hvcurveto
            endchar
          </CharString>
          <CharString index="308">
            9 callgsubr
            33 25 67 return
          </CharString>
          <CharString index="309">
            vlineto
            206 callsubr
            return
          </CharString>
          <CharString index="310">
            -99 callgsubr
            -68 253 callsubr
            130 callsubr
            return
          </CharString>
          <CharString index="311">
            139 callgsubr
            -44 202 callsubr
            return
          </CharString>
          <CharString index="312">
            vlineto
            42 -10 32 157 callgsubr
            return
          </CharString>
          <CharString index="313">
            -83 51 -43 81 vhcurveto
            return
          </CharString>
          <CharString index="314">
            -98 callgsubr
            -200 95 callgsubr
            -83 vlineto
            return
          </CharString>
          <CharString index="315">
            vlineto
            -5 -2 -3 -7 321 callgsubr
            46 -99 callgsubr
            return
          </CharString>
          <CharString index="316">
            -79 callsubr
            hvcurveto
            -28 -63 callsubr
            return
          </CharString>
          <CharString index="317">
            37 vvcurveto
            43 18 28 43 vhcurveto
            188 -99 callgsubr
            return
          </CharString>
          <CharString index="318">
            302 -91 callgsubr
            return
          </CharString>
          <CharString index="319">
            360 callgsubr
            4 2 -1 2 -1 2 hvcurveto
            return
          </CharString>
          <CharString index="320">
            -39 183 callsubr
            return
          </CharString>
          <CharString index="321">
            rmoveto
            16 callgsubr
            return
          </CharString>
          <CharString index="322">
            -61 -29 -38 -51 return
          </CharString>
          <CharString index="323">
            -9 -7 -8 -10 hvcurveto
            return
          </CharString>
          <CharString index="324">
            hvcurveto
            6 -53 callgsubr
            return
          </CharString>
          <CharString index="325">
            -32 -20 -15 -35 -46 vvcurveto
            return
          </CharString>
          <CharString index="326">
            rmoveto
            -7 callsubr
            return
          </CharString>
          <CharString index="327">
            rmoveto
            6 -2 4 -7 vhcurveto
            -17 hlineto
            -7 -2 -4 -6 hvcurveto
            7 -182 rlineto
            -7 4 -3 5 vhcurveto
            3 hlineto
            5 return
          </CharString>
          <CharString index="328">
            -84 callgsubr
            564 4 vlineto
            334 -565 rlineto
            return
          </CharString>
          <CharString index="329">
            -75 -30 -23 -64 vhcurveto
            return
          </CharString>
          <CharString index="330">
            4 5 5 hvcurveto
            return
          </CharString>
          <CharString index="331">
            -184 -141 57 callgsubr
            return
          </CharString>
          <CharString index="332">
            296 callsubr
            -737 -4 callgsubr
            350 -99 callgsubr
            return
          </CharString>
          <CharString index="333">
            248 callgsubr
            -62 -39 callgsubr
            90 hlineto
            return
          </CharString>
          <CharString index="334">
            hlineto
            43 callsubr
            -41 174 callsubr
            return
          </CharString>
          <CharString index="335">
            257 callgsubr
            -81 -43 return
          </CharString>
          <CharString index="336">
            -79 callsubr
            hvcurveto
            -6 vlineto
            return
          </CharString>
          <CharString index="337">
            -95 callgsubr
            119 -106 callgsubr
            endchar
          </CharString>
          <CharString index="338">
            hlineto
            172 callgsubr
            return
          </CharString>
          <CharString index="339">
            hlineto
            68 37 38 67 vhcurveto
            65 hlineto
            112 callgsubr
            -28 vlineto
            -91 callsubr
            29 169 callsubr
            -65 hlineto
            -81 -53 -50 -83 hvcurveto
            return
          </CharString>
          <CharString index="340">
            rmoveto
            63 29 26 26 14 hvcurveto
            4 -43 hlineto
            -91 callsubr
            return
          </CharString>
          <CharString index="341">
            67 27 -19 -58 hvcurveto
            return
          </CharString>
          <CharString index="342" raw="1">
            9706908e 0b  
          </CharString>
          <CharString index="343">
            133 callsubr
            81 53 45 83 hvcurveto
            145 vlineto
            return
          </CharString>
          <CharString index="344">
            134 callgsubr
            499 vlineto
            5 -3 3 -5 vhcurveto
            endchar
          </CharString>
          <CharString index="345">
            -91 callgsubr
            351 -99 callgsubr
            return
          </CharString>
          <CharString index="346">
            -182 vlineto
            -91 callsubr
            return
          </CharString>
          <CharString index="347">
            96 194 callgsubr
            return
          </CharString>
          <CharString index="348">
            -84 callsubr
            -2 hvcurveto
            return
          </CharString>
          <CharString index="349">
            130 callgsubr
            -12 29 210 callsubr
            return
          </CharString>
          <CharString index="350" raw="1">
            fb0c0629 0a0b  
          </CharString>
          <CharString index="351">
            21 68 hvcurveto
            9 -96 callgsubr
            -10 vlineto
            -83 return
          </CharString>
          <CharString index="352">
            -96 callgsubr
            endchar
          </CharString>
          <CharString index="353">
            623 rmoveto
            -13 -3 2 11 -7 hvcurveto
            -150 222 89 callsubr
            54 -79 return
          </CharString>
          <CharString index="354">
            -99 callgsubr
            -167 156 callgsubr
            return
          </CharString>
          <CharString index="355">
            hmoveto
            -14 callsubr
            127 callsubr
            return
          </CharString>
          <CharString index="356">
            hlineto
            67 27 -31 -68 hvcurveto
            return
          </CharString>
          <CharString index="357">
            -54 -46 -17 -53 -17 hvcurveto
            return
          </CharString>
          <CharString index="358">
            36 hlineto
            25 19 5 0 hvcurveto
            return
          </CharString>
          <CharString index="359">
            -4 hlineto
            290 callgsubr
            -138 -39 callgsubr
            80 134 callgsubr
            221 vlineto
            return
          </CharString>
          <CharString index="360">
            vlineto
            -68 -29 -14 -48 vhcurveto
            278 callgsubr
            return
          </CharString>
          <CharString index="361">
            -49 callgsubr
            90 7 callgsubr
            return
          </CharString>
          <CharString index="362">
            -99 callgsubr
            -99 -57 callsubr
            return
          </CharString>
          <CharString index="363">
            hlineto
            43 callsubr
            -11 174 callsubr
            return
          </CharString>
          <CharString index="364">
            hlineto
            -84 callgsubr
            625 return
          </CharString>
          <CharString index="365">
            hlineto
            -67 -27 20 58 return
          </CharString>
          <CharString index="366">
            -32 callsubr
            48 return
          </CharString>
          <CharString index="367">
            -53 callgsubr
            endchar
          </CharString>
          <CharString index="368">
            hlineto
            -97 callsubr
            464 17 187 callsubr
            return
          </CharString>
          <CharString index="369">
            -73 310 callsubr
            return
          </CharString>
          <CharString index="370">
            378 27 callsubr
            return
          </CharString>
          <CharString index="371">
            -26 14 29 -26 63 hhcurveto
            74 134 callgsubr
            238 6 callgsubr
            -74 hlineto
            -63 -29 -26 -26 -14 hvcurveto
            -4 return
          </CharString>
          <CharString index="372">
            93 rmoveto
            38 34 8 28 18 hvcurveto
            4 -109 hlineto
            return
          </CharString>
          <CharString index="373">
            vlineto
            -83 43 -43 81 vhcurveto
            return
          </CharString>
          <CharString index="374">
            196 callgsubr
            685 vlineto
            97 callgsubr
            return
          </CharString>
          <CharString index="375">
            39 173 369 rmoveto
            -43 27 -38 38 66 vvcurveto
            73 28 25 71 71 24 -25 -73 -52 -26 -51 -60 -39 vhcurveto
            -5 -3 rlineto
            return
          </CharString>
          <CharString index="376">
            -378 283 callsubr
            return
          </CharString>
          <CharString index="377">
            -106 callsubr
            84 -11 callsubr
            -273 vlineto
            6 callsubr
            return
          </CharString>
          <CharString index="378">
            -486 60 callgsubr
            235 -248 rlineto
            -29 -16 -31 -16 -43 hhcurveto
            return
          </CharString>
          <CharString index="379">
            hvcurveto
            5 -3 -2 2 -3 hhcurveto
            -3 -2 -1 -1 -2 hvcurveto
            -8 -4 rlineto
            -4 -2 -1 -3 -2 vvcurveto
            -1 1 -4 2 -4 vhcurveto
            return
          </CharString>
          <CharString index="380">
            331 callsubr
            53 vlineto
            126 35 34 128 callsubr
            -27 return
          </CharString>
          <CharString index="381">
            201 callgsubr
            66 -99 callgsubr
            return
          </CharString>
          <CharString index="382">
            254 callsubr
            -403 return
          </CharString>
          <CharString index="383">
            277 callsubr
            369 vlineto
            69 47 35 65 vhcurveto
            return
          </CharString>
          <CharString index="384">
            102 119 callgsubr
            return
          </CharString>
          <CharString index="385">
            47 17 23 44 55 vvcurveto
            return
          </CharString>
          <CharString index="386">
            -61 callgsubr
            65 290 callsubr
            -65 12 callsubr
            return
          </CharString>
          <CharString index="387">
            152 callgsubr
            -180 vlineto
            173 211 callgsubr
            return
          </CharString>
          <CharString index="388">
            294 rmoveto
            -51 callsubr
            103 -49 callgsubr
            92 7 callgsubr
            -212 vlineto
            return
          </CharString>
          <CharString index="389">
            -96 callgsubr
            -80 return
          </CharString>
          <CharString index="390">
            rmoveto
            -61 callgsubr
            272 -95 callgsubr
            return
          </CharString>
          <CharString index="391">
            rmoveto
            108 callgsubr
            return
          </CharString>
          <CharString index="392">
            -76 callsubr
            337 -99 callgsubr
            return
          </CharString>
          <CharString index="393">
            220 83 callgsubr
            return
          </CharString>
          <CharString index="394">
            -95 callgsubr
            215 317 callsubr
          </CharString>
          <CharString index="395">
            590 rmoveto
            136 callgsubr
            return
          </CharString>
          <CharString index="396">
            242 callgsubr
            15 134 callsubr
            return
          </CharString>
          <CharString index="397">
            -27 callsubr
            105 hlineto
            112 callgsubr
            return
          </CharString>
          <CharString index="398">
            rlineto
            7 2 259 callgsubr
            return
          </CharString>
          <CharString index="399">
            -84 callsubr
            2 hvcurveto
            return
          </CharString>
          <CharString index="400">
            46 158 rlineto
            10 -80 callgsubr
            -8 hhcurveto
            -8 hlineto
            -8 -3 -4 -7 -2 hvcurveto
            -47 -162 rlineto
            return
          </CharString>
          <CharString index="401">
            356 488 rmoveto
            -68 -27 -39 -77 -77 -27 39 68 68 27 39 77 77 27 -39 -68 vhcurveto
            return
          </CharString>
          <CharString index="402">
            -47 callsubr
            -56 hlineto
            -100 callsubr
            return
          </CharString>
          <CharString index="403">
            hlineto
            136 callgsubr
            return
          </CharString>
          <CharString index="404">
            -99 callgsubr
            239 callsubr
            return
          </CharString>
          <CharString index="405">
            -95 callgsubr
            183 hlineto
            return
          </CharString>
          <CharString index="406">
            146 callsubr
            147 return
          </CharString>
          <CharString index="407">
            rmoveto
            -61 callgsubr
            234 vlineto
            245 -284 rlineto
            -36 -16 -33 -20 -46 hhcurveto
            return
          </CharString>
          <CharString index="408">
            -28 callsubr
            -80 -61 callsubr
            136 -49 callgsubr
            return
          </CharString>
          <CharString index="409" raw="1">
            f903157e 888d9684 1ffb2af7 7205ef1d
            0b   
          </CharString>
          <CharString index="410">
            28 callgsubr
            15 146 callsubr
            return
          </CharString>
          <CharString index="411">
            hlineto
            -5 -4 -1 -8 -2 hvcurveto
            return
          </CharString>
          <CharString index="412">
            66 35 40 64 return
          </CharString>
          <CharString index="413">
            hhcurveto
            -14 hlineto
            -7 return
          </CharString>
          <CharString index="414">
            -133 rmoveto
            -14 callsubr
            return
          </CharString>
          <CharString index="415">
            3 -3 6 hhcurveto
            10 hlineto
            return
          </CharString>
          <CharString index="416">
            3 -3 9 hvcurveto
            -8 23 return
          </CharString>
          <CharString index="417">
            43 -32 81 vhcurveto
            return
          </CharString>
          <CharString index="418">
            258 -79 callgsubr
            return
          </CharString>
          <CharString index="419">
            -103 callgsubr
            -50 hlineto
            -67 -27 return
          </CharString>
          <CharString index="420">
            vhcurveto
            -4 -93 callsubr
            4 hlineto
            return
          </CharString>
          <CharString index="421">
            -83 53 -49 81 vhcurveto
            return
          </CharString>
          <CharString index="422">
            hlineto
            -67 -27 21 return
          </CharString>
          <CharString index="423">
            336 callsubr
            -32 -8 return
          </CharString>
          <CharString index="424">
            7 callgsubr
            -369 -27 callgsubr
            endchar
          </CharString>
          <CharString index="425">
            12 callsubr
            endchar
          </CharString>
          <CharString index="426">
            2 1 2 2 return
          </CharString>
          <CharString index="427">
            -104 callgsubr
            -184 hlineto
            return
          </CharString>
          <CharString index="428">
            45 20 17 40 55 vvcurveto
            46 vlineto
            47 -14 39 -36 18 vhcurveto
            4 return
          </CharString>
          <CharString index="429">
            hvcurveto
            -48 vlineto
            -91 callsubr
            return
          </CharString>
          <CharString index="430">
            -198 hlineto
            -91 callsubr
            return
          </CharString>
          <CharString index="431">
            -163 hlineto
            -91 callsubr
            return
          </CharString>
          <CharString index="432">
            rlineto
            -7 -4 -78 callgsubr
            vvcurveto
            -16 vlineto
            -92 callgsubr
            4 vhcurveto
            return
          </CharString>
          <CharString index="433">
            -99 callgsubr
            -269 vlineto
            return
          </CharString>
          <CharString index="434" raw="1">
            921ef72e 06928d0b  
          </CharString>
          <CharString index="435" raw="1">
            a7561d0b   
          </CharString>
          <CharString index="436">
            -21 vlineto
            17 -21 180 return
          </CharString>
          <CharString index="437">
            21 3 18 7 15 vhcurveto
            return
          </CharString>
          <CharString index="438">
            -5 -1 -19 callgsubr
            return
          </CharString>
          <CharString index="439">
            2 3 7 hvcurveto
            return
          </CharString>
          <CharString index="440">
            -17 callgsubr
            117 -95 callgsubr
            return
          </CharString>
          <CharString index="441">
            -99 callgsubr
            -261 -57 callsubr
            return
          </CharString>
          <CharString index="442">
            346 callsubr
            -57 callsubr
            return
          </CharString>
          <CharString index="443">
            287 265 callsubr
            return
          </CharString>
          <CharString index="444">
            352 callgsubr
            -136 hlineto
            15 callsubr
            return
          </CharString>
          <CharString index="445">
            219 callsubr
            121 173 callgsubr
            return
          </CharString>
          <CharString index="446">
            hlineto
            250 -196 rmoveto
            207 196 -207 hlineto
            return
          </CharString>
          <CharString index="447">
            vmoveto
            -91 callsubr
            return
          </CharString>
          <CharString index="448">
            249 callgsubr
            -39 -44 callsubr
            return
          </CharString>
          <CharString index="449">
            112 119 callgsubr
            return
          </CharString>
          <CharString index="450">
            vlineto
            -83 47 33 callsubr
            4 hlineto
            return
          </CharString>
          <CharString index="451">
            353 -99 callgsubr
            return
          </CharString>
          <CharString index="452">
            167 134 callgsubr
            return
          </CharString>
          <CharString index="453">
            -99 callgsubr
            -147 return
          </CharString>
          <CharString index="454">
            -16 -17 -29 -43 vvcurveto
            return
          </CharString>
          <CharString index="455">
            13 hlineto
            5 3 2 return
          </CharString>
          <CharString index="456">
            hhcurveto
            3 2 1 return
          </CharString>
          <CharString index="457">
            347 callsubr
            -30 vlineto
            -73 43 -33 81 vhcurveto
            return
          </CharString>
          <CharString index="458">
            -61 callsubr
            endchar
          </CharString>
          <CharString index="459">
            -73 hvcurveto
            -4 vlineto
            -73 43 return
          </CharString>
          <CharString index="460">
            hlineto
            47 23 -30 -55 hvcurveto
            return
          </CharString>
          <CharString index="461">
            hhcurveto
            364 callgsubr
            return
          </CharString>
          <CharString index="462">
            vvcurveto
            -44 202 callsubr
            117 hlineto
            return
          </CharString>
          <CharString index="463">
            -95 callgsubr
            274 hlineto
            7 2 return
          </CharString>
          <CharString index="464">
            65 47 -35 -69 hvcurveto
            return
          </CharString>
          <CharString index="465">
            hlineto
            -6 -42 callsubr
            return
          </CharString>
          <CharString index="466">
            1 3 3 hvcurveto
            return
          </CharString>
          <CharString index="467">
            46 hlineto
            49 33 return
          </CharString>
          <CharString index="468" raw="1">
            240ae906 ceb00b  
          </CharString>
          <CharString index="469">
            284 rlineto
            51 hlineto
            72 52 37 94 hvcurveto
            return
          </CharString>
          <CharString index="470">
            -269 rmoveto
            31 vlineto
            83 -53 51 -81 vhcurveto
            return
          </CharString>
          <CharString index="471">
            hhcurveto
            213 callsubr
            return
          </CharString>
          <CharString index="472">
            vhcurveto
            142 hlineto
            return
          </CharString>
        <CharString name=".notdef">
          103 120 hmoveto
          360 582 -360 hlineto
          50 -46 rmoveto
          260 -490 -260 hlineto
          endchar
        </CharString>
        <CharString name="A">
          -49 callsubr
          endchar
        </CharString>
        <CharString name="AE">
          274 376 607 rmoveto
          4 -394 -228 hlineto
          -128 -213 rmoveto
          -86 callgsubr
          4 hvcurveto
          99 174 rlineto
          245 -174 hlineto
          -98 callsubr
          304 hlineto
          -65 callsubr
          -322 hlineto
          -6 -4 -2 -7 -4 hvcurveto
          -355 -625 rlineto
          -6 -3 2 -3 5 hhcurveto
          endchar
        </CharString>
        <CharString name="AEacute">
          274 376 607 rmoveto
          4 -394 -228 hlineto
          -128 -213 rmoveto
          -86 callgsubr
          4 hvcurveto
          99 174 rlineto
          245 -174 hlineto
          -98 callsubr
          304 hlineto
          -65 callsubr
          -322 hlineto
          -6 -4 -2 -7 -4 hvcurveto
          -355 -625 rlineto
          -6 -3 2 -3 5 hhcurveto
          480 836 -72 callsubr
        </CharString>
        <CharString name="Aacute">
          -49 callsubr
          307 836 -72 callsubr
        </CharString>
        <CharString name="Abreve">
          -49 callsubr
          130 827 -59 callgsubr
        </CharString>
        <CharString name="Acircumflex">
          -49 callsubr
          250 827 -73 callgsubr
          endchar
        </CharString>
        <CharString name="Adieresis">
          -49 callsubr
          289 716 rmoveto
          -67 callgsubr
        </CharString>
        <CharString name="Agrave">
          -49 callsubr
          161 827 -30 callgsubr
        </CharString>
        <CharString name="Amacron">
          -49 callsubr
          328 757 13 callsubr
          -204 83 callsubr
        </CharString>
        <CharString name="Aogonek">
          29 134 213 rmoveto
          127 392 rlineto
          4 hlineto
          127 -392 rlineto
          -107 421 rmoveto
          184 callgsubr
          -24 241 callsubr
          -210 -625 rlineto
          -7 -2 -80 callgsubr
          hhcurveto
          14 hlineto
          145 callsubr
          58 -165 -67 -84 rlineto
          -17 -14 6 -18 354 callgsubr
          8 191 callgsubr
          14 252 callgsubr
          endchar
        </CharString>
        <CharString name="Aring">
          -49 callsubr
          219 715 112 callsubr
        </CharString>
        <CharString name="Atilde">
          -49 callsubr
          238 765 rmoveto
          -52 callgsubr
          -39 vlineto
          153 callsubr
          endchar
        </CharString>
        <CharString name="B">
          47 90 9 rmoveto
          -98 callsubr
          237 94 callgsubr
          73 vlineto
          72 -49 45 -45 2 vhcurveto
          47 14 41 33 72 vvcurveto
          66 169 callsubr
          -231 -89 callgsubr
          39 -295 219 callsubr
          260 -95 callgsubr
          200 hlineto
          112 callgsubr
          -64 vlineto
          -68 -41 -38 -67 vhcurveto
          -196 -311 219 callsubr
          267 -95 callgsubr
          196 hlineto
          77 194 callsubr
          -71 318 callsubr
        </CharString>
        <CharString name="C">
          17 callsubr
          endchar
        </CharString>
        <CharString name="CR">
          -497 endchar
        </CharString>
        <CharString name="Cacute">
          17 callsubr
          135 836 -72 callsubr
        </CharString>
        <CharString name="Ccaron">
          17 callsubr
          60 707 -66 callsubr
          endchar
        </CharString>
        <CharString name="Ccedilla">
          46 470 448 196 callgsubr
          50 6 callgsubr
          -130 151 callsubr
          -371 -39 callgsubr
          70 hlineto
          -40 -45 rlineto
          182 callgsubr
          -25 -15 -9 71 callsubr
          46 50 rlineto
          26 hlineto
          165 callsubr
          -130 122 callsubr
          130 7 callgsubr
          -49 vlineto
          -98 callsubr
          endchar
        </CharString>
        <CharString name="Cdotaccent">
          17 callsubr
          50 722 2 callgsubr
          endchar
        </CharString>
        <CharString name="D">
          173 callsubr
          endchar
        </CharString>
        <CharString name="Dcaron">
          173 callsubr
          -75 679 -66 callsubr
          endchar
        </CharString>
        <CharString name="Dcroat">
          3 344 248 callsubr
          -246 -89 callgsubr
          -236 208 callsubr
          -345 vlineto
          -98 callsubr
          31 28 219 callsubr
          318 -95 callgsubr
          166 -103 callgsubr
          -166 hlineto
          -7 callsubr
          209 287 callsubr
        </CharString>
        <CharString name="E">
          -16 402 hmoveto
          -65 callsubr
          -304 -89 callgsubr
          -625 vlineto
          -98 callsubr
          endchar
        </CharString>
        <CharString name="Eacute">
          -16 402 hmoveto
          -65 callsubr
          -304 -89 callgsubr
          -625 vlineto
          -98 callsubr
          221 836 -72 callsubr
        </CharString>
        <CharString name="Ebreve">
          -16 402 hmoveto
          -65 callsubr
          -304 -89 callgsubr
          -625 vlineto
          -98 callsubr
          50 827 -59 callgsubr
        </CharString>
        <CharString name="Ecaron">
          -16 402 hmoveto
          -65 callsubr
          -304 -89 callgsubr
          -625 vlineto
          -98 callsubr
          147 707 -66 callsubr
          endchar
        </CharString>
        <CharString name="Ecircumflex">
          -16 402 hmoveto
          -65 callsubr
          -304 -89 callgsubr
          -625 vlineto
          -98 callsubr
          176 827 -73 callgsubr
          endchar
        </CharString>
        <CharString name="Edieresis">
          -16 402 hmoveto
          -65 callsubr
          -304 -89 callgsubr
          -625 vlineto
          -98 callsubr
          215 716 rmoveto
          -67 callgsubr
        </CharString>
        <CharString name="Edotaccent">
          3 402 hmoveto
          -65 callsubr
          -304 -89 callgsubr
          -625 vlineto
          -98 callsubr
          137 722 2 callgsubr
          endchar
        </CharString>
        <CharString name="Egrave">
          -16 402 hmoveto
          -65 callsubr
          -304 -89 callgsubr
          -625 vlineto
          -98 callsubr
          105 827 -30 callgsubr
        </CharString>
        <CharString name="Emacron">
          -16 402 hmoveto
          -65 callsubr
          -304 -89 callgsubr
          -625 vlineto
          -98 callsubr
          254 757 13 callsubr
          -204 83 callsubr
        </CharString>
        <CharString name="Eng">
          3 354 307 callsubr
          631 63 callgsubr
          14 hlineto
          221 callsubr
          -4 -27 callgsubr
          -20 83 callsubr
        </CharString>
        <CharString name="Eogonek">
          -16 402 615 13 callsubr
          -304 -89 callgsubr
          -625 vlineto
          -98 callsubr
          221 hlineto
          -52 -66 rlineto
          -17 -14 6 -18 354 callgsubr
          8 191 callgsubr
          54 hlineto
          -47 callgsubr
          endchar
        </CharString>
        <CharString name="Eth">
          3 344 248 callsubr
          -246 -89 callgsubr
          -286 208 callsubr
          -295 vlineto
          -98 callsubr
          31 28 219 callsubr
          268 -95 callgsubr
          166 -103 callgsubr
          -166 hlineto
          -7 callsubr
          259 287 callsubr
        </CharString>
        <CharString name="Euro">
          20 313 hmoveto
          81 53 50 83 hvcurveto
          29 -96 callgsubr
          -28 12 callsubr
          -65 -44 callsubr
          113 176 vlineto
          -104 callgsubr
          -176 92 176 -103 callgsubr
          -176 114 232 callsubr
          -115 -65 228 callgsubr
          65 -92 -65 -93 callsubr
          65 -114 hlineto
          6 callsubr
          endchar
        </CharString>
        <CharString name="F">
          -35 342 callsubr
          288 -95 callgsubr
          247 -103 callgsubr
          -247 hlineto
          -7 callsubr
          266 vlineto
          5 2 3 7 vhcurveto
          274 -103 callgsubr
          -305 -89 callgsubr
          -625 vlineto
          -98 callsubr
          endchar
        </CharString>
        <CharString name="G">
          -20 callsubr
          endchar
        </CharString>
        <CharString name="Gbreve">
          -20 callsubr
          -40 827 -59 callgsubr
        </CharString>
        <CharString name="Gcircumflex">
          -20 callsubr
          79 827 -73 callgsubr
          endchar
        </CharString>
        <CharString name="Gdotaccent">
          -20 callsubr
          39 722 2 callgsubr
          endchar
        </CharString>
        <CharString name="H">
          71 342 callsubr
          297 -95 callgsubr
          310 -99 callgsubr
          -297 vlineto
          -91 callsubr
          625 -96 callgsubr
          -284 -57 callsubr
          -310 hlineto
          -7 callsubr
          284 110 callsubr
          endchar
        </CharString>
        <CharString name="Hbar">
          3 129 342 219 callsubr
          114 -95 callgsubr
          310 -99 callgsubr
          -114 -57 callsubr
          -327 -342 196 callgsubr
          297 -95 callgsubr
          310 -99 callgsubr
          -297 vlineto
          -91 callsubr
          455 -95 callgsubr
          46 -103 callgsubr
          -46 hlineto
          -7 callsubr
          126 -96 callgsubr
          -126 -57 callsubr
          -310 hlineto
          -7 callsubr
          126 -96 callgsubr
          -126 208 callsubr
          -455 vlineto
          -98 callsubr
          endchar
        </CharString>
        <CharString name="I">
          -277 125 634 19 callsubr
          endchar
        </CharString>
        <CharString name="IJ">
          215 125 634 19 callsubr
          485 634 189 callsubr
        </CharString>
        <CharString name="Iacute">
          -276 125 634 19 callsubr
          61 827 -72 callsubr
        </CharString>
        <CharString name="Ibreve">
          -276 125 634 19 callsubr
          -110 818 -59 callgsubr
        </CharString>
        <CharString name="Icircumflex">
          -277 125 634 19 callsubr
          9 818 -73 callgsubr
          endchar
        </CharString>
        <CharString name="Idieresis">
          -277 125 634 19 callsubr
          48 707 rmoveto
          -67 callgsubr
        </CharString>
        <CharString name="Idotaccent">
          -277 95 692 2 callgsubr
          30 -157 19 callsubr
          endchar
        </CharString>
        <CharString name="Igrave">
          -277 125 634 19 callsubr
          -75 818 -30 callgsubr
        </CharString>
        <CharString name="Imacron">
          -277 125 634 19 callsubr
          87 748 13 callsubr
          -204 83 callsubr
        </CharString>
        <CharString name="Iogonek">
          -277 103 643 329 callgsubr
          -617 vlineto
          -66 -83 rlineto
          -17 -14 6 -18 354 callgsubr
          8 191 callgsubr
          7 257 callsubr
          260 callsubr
        </CharString>
        <CharString name="Itilde">
          -277 125 634 19 callsubr
          -3 756 rmoveto
          -52 callgsubr
          -39 vlineto
          153 callsubr
          endchar
        </CharString>
        <CharString name="J">
          -4 386 643 189 callsubr
        </CharString>
        <CharString name="Jcircumflex">
          -4 413 827 -73 callgsubr
          -91 -75 189 callsubr
        </CharString>
        <CharString name="K">
          129 callgsubr
          endchar
        </CharString>
        <CharString name="L">
          -45 413 hmoveto
          63 callsubr
          endchar
        </CharString>
        <CharString name="Lacute">
          -45 413 hmoveto
          63 callsubr
          82 836 -72 callsubr
        </CharString>
        <CharString name="Lcaron">
          -45 413 hmoveto
          63 callsubr
          255 634 -1 callsubr
          endchar
        </CharString>
        <CharString name="Ldot">
          3 311 263 callsubr
          102 -259 rmoveto
          63 callsubr
          endchar
        </CharString>
        <CharString name="Lslash">
          3 413 hmoveto
          135 callsubr
          380 vlineto
          106 60 324 callgsubr
          -106 -60 rlineto
          184 -96 callgsubr
          -201 vlineto
          -75 -43 325 callsubr
          75 43 rlineto
          -392 vlineto
          -98 callsubr
          endchar
        </CharString>
        <CharString name="M">
          191 346 177 rmoveto
          -4 hlineto
          -209 462 rlineto
          2 -1 -2 2 -4 hhcurveto
          -28 29 callgsubr
          577 4 vlineto
          199 -438 rlineto
          -6 3 3 -2 6 hhcurveto
          19 hlineto
          6 3 2 6 3 hvcurveto
          198 437 rlineto
          4 -576 hlineto
          -91 callsubr
          625 -53 callgsubr
          -28 hlineto
          -4 -2 -2 -2 -1 hvcurveto
          endchar
        </CharString>
        <CharString name="Mu">
          21 115 44 rmoveto
          -53 44 65 9 69 hhcurveto
          63 29 26 26 14 hvcurveto
          4 -43 hlineto
          45 callsubr
          -369 vlineto
          50 callgsubr
          364 vlineto
          23 callgsubr
          endchar
        </CharString>
        <CharString name="N">
          81 112 hmoveto
          37 callsubr
          endchar
        </CharString>
        <CharString name="NULL">
          -497 endchar
        </CharString>
        <CharString name="Nacute">
          81 112 hmoveto
          37 callsubr
          277 836 -72 callsubr
        </CharString>
        <CharString name="Ncaron">
          81 284 707 -66 callsubr
          -172 -707 rmoveto
          37 callsubr
          endchar
        </CharString>
        <CharString name="Ntilde">
          81 112 hmoveto
          37 callsubr
          203 765 rmoveto
          -52 callgsubr
          -39 vlineto
          153 callsubr
          endchar
        </CharString>
        <CharString name="O">
          -33 callsubr
          endchar
        </CharString>
        <CharString name="OE">
          276 214 28 rmoveto
          96 callgsubr
          149 -99 callgsubr
          -571 -57 callsubr
          -283 108 310 callgsubr
          470 hlineto
          -65 callsubr
          -470 151 callsubr
          endchar
        </CharString>
        <CharString name="Oacute">
          -33 callsubr
          6 808 -72 callsubr
        </CharString>
        <CharString name="Obreve">
          -33 callsubr
          -158 799 -59 callgsubr
        </CharString>
        <CharString name="Ocircumflex">
          -33 callsubr
          -39 799 -73 callgsubr
          endchar
        </CharString>
        <CharString name="Odieresis">
          -33 callsubr
          688 vmoveto
          -67 callgsubr
        </CharString>
        <CharString name="Ograve">
          -33 callsubr
          -118 799 -30 callgsubr
        </CharString>
        <CharString name="Ohungarumlaut">
          -33 callsubr
          64 808 -6 callgsubr
        </CharString>
        <CharString name="Omacron">
          -33 callsubr
          39 729 13 callsubr
          -204 83 callsubr
        </CharString>
        <CharString name="Oslash">
          56 443 137 74 callsubr
        </CharString>
        <CharString name="Oslashacute">
          55 271 707 rmoveto
          5 5 3 5 4 hvcurveto
          92 112 rlineto
          5 4 -3 4 -5 hhcurveto
          -30 hlineto
          -7 -5 -3 -6 -3 hvcurveto
          -68 -111 rlineto
          -5 -3 1 -4 5 hhcurveto
          180 -570 74 callsubr
        </CharString>
        <CharString name="Otilde">
          -33 callsubr
          -51 737 rmoveto
          -52 callgsubr
          -39 vlineto
          153 callsubr
          endchar
        </CharString>
        <CharString name="P">
          26 129 276 219 callsubr
          323 -95 callgsubr
          195 7 callgsubr
          -121 -27 callgsubr
          -212 -276 196 callgsubr
          231 -95 callgsubr
          195 hlineto
          81 53 53 222 callgsubr
          53 -81 vhcurveto
          -226 -89 callgsubr
          -625 vlineto
          -98 callsubr
          endchar
        </CharString>
        <CharString name="Pi">
          93 172 119 callgsubr
          596 vlineto
          5 3 3 6 vhcurveto
          212 336 callgsubr
          -90 callsubr
          hvcurveto
          596 vlineto
          5 3 3 6 vhcurveto
          92 hlineto
          141 callsubr
          -492 hlineto
          266 callgsubr
          92 336 callgsubr
          endchar
        </CharString>
        <CharString name="Q">
          56 412 -133 rmoveto
          5 3 3 6 -4 hvcurveto
          -77 124 rlineto
          -14 callsubr
          127 callsubr
          355 callgsubr
          -83 53 -53 81 vhcurveto
          90 hlineto
          77 -124 rlineto
          -8 5 4 -1 6 hhcurveto
          -182 161 rmoveto
          36 callgsubr
          endchar
        </CharString>
        <CharString name="R">
          2 callsubr
          endchar
        </CharString>
        <CharString name="Racute">
          2 callsubr
          217 836 -72 callsubr
        </CharString>
        <CharString name="Rcaron">
          2 callsubr
          147 707 -66 callsubr
          endchar
        </CharString>
        <CharString name="S">
          -21 callsubr
          endchar
        </CharString>
        <CharString name="Sacute">
          -21 callsubr
          261 660 -72 callsubr
        </CharString>
        <CharString name="Scaron">
          -21 callsubr
          189 531 -66 callsubr
          endchar
        </CharString>
        <CharString name="Scircumflex">
          -21 callsubr
          218 651 -73 callgsubr
          endchar
        </CharString>
        <CharString name="Sigma">
          -19 241 321 rmoveto
          -179 -294 rlineto
          -1 -2 -1 -4 -4 vvcurveto
          -102 callsubr
          340 hlineto
          7 2 3 3 hvcurveto
          12 vlineto
          7 -82 callgsubr
          vhcurveto
          -313 4 hlineto
          171 274 6 10 0 12 -6 10 rlinecurve
          -170 272 rlineto
          4 312 vlineto
          -97 callsubr
          13 -104 callsubr
          -340 hlineto
          -100 callsubr
          -10 vlineto
          -4 1 -4 1 -2 vhcurveto
          179 -290 rlineto
          endchar
        </CharString>
        <CharString name="T">
          -83 214 119 callgsubr
          598 vlineto
          5 2 3 7 vhcurveto
          154 -103 callgsubr
          -356 -93 callsubr
          154 -99 callgsubr
          -598 vlineto
          -98 callsubr
          endchar
        </CharString>
        <CharString name="Tbar">
          3 214 119 callgsubr
          315 -95 callgsubr
          114 -103 callgsubr
          -114 hlineto
          -7 callsubr
          239 vlineto
          5 2 3 7 vhcurveto
          154 -103 callgsubr
          -356 -93 callsubr
          154 -99 callgsubr
          -239 -57 callsubr
          -104 -93 callsubr
          104 -99 callgsubr
          -315 vlineto
          -98 callsubr
          endchar
        </CharString>
        <CharString name="Tcaron">
          -83 214 119 callgsubr
          598 vlineto
          5 2 3 7 vhcurveto
          154 -103 callgsubr
          -356 -93 callsubr
          154 -99 callgsubr
          -598 vlineto
          -98 callsubr
          3 707 -66 callsubr
          endchar
        </CharString>
        <CharString name="Thorn">
          3 147 119 callgsubr
          116 -95 callgsubr
          124 134 callgsubr
          105 6 callgsubr
          -124 hlineto
          -7 callsubr
          116 110 callsubr
          31 161 219 callsubr
          305 -95 callgsubr
          124 7 callgsubr
          -103 -27 callgsubr
          endchar
        </CharString>
        <CharString name="U">
          -40 callgsubr
          endchar
        </CharString>
        <CharString name="Uacute">
          -40 callgsubr
          -114 193 -72 callsubr
        </CharString>
        <CharString name="Ubreve">
          -40 callgsubr
          -277 184 -59 callgsubr
        </CharString>
        <CharString name="Ucircumflex">
          -40 callgsubr
          -158 184 -73 callgsubr
          endchar
        </CharString>
        <CharString name="Udieresis">
          -40 callgsubr
          -119 73 rmoveto
          -67 callgsubr
        </CharString>
        <CharString name="Ugrave">
          -40 callgsubr
          -230 184 -30 callgsubr
        </CharString>
        <CharString name="Uhungarumlaut">
          -40 callgsubr
          -59 193 -6 callgsubr
        </CharString>
        <CharString name="Umacron">
          -40 callgsubr
          -80 114 13 callsubr
          -204 83 callsubr
        </CharString>
        <CharString name="Uogonek">
          53 443 643 319 callgsubr
          -6 151 callgsubr
          -112 -61 callsubr
          497 -96 callgsubr
          -498 -39 callgsubr
          62 hlineto
          -52 -66 rlineto
          -17 -14 6 -18 354 callgsubr
          8 191 callgsubr
          21 237 callsubr
        </CharString>
        <CharString name="Uring">
          -40 callgsubr
          -188 72 112 callsubr
        </CharString>
        <CharString name="Utilde">
          -40 callgsubr
          -170 122 rmoveto
          -52 callgsubr
          -39 vlineto
          153 callsubr
          endchar
        </CharString>
        <CharString name="V">
          -3 259 hmoveto
          -86 callgsubr
          2 hvcurveto
          194 625 291 callsubr
          -15 241 callsubr
          -183 -590 rlineto
          -4 hlineto
          -183 590 230 callgsubr
          -15 292 callsubr
          194 -625 rlineto
          -7 2 -80 callgsubr
          hhcurveto
          endchar
        </CharString>
        <CharString name="W">
          293 -26 callgsubr
          endchar
        </CharString>
        <CharString name="Wacute">
          294 -26 callgsubr
          281 836 -72 callsubr
        </CharString>
        <CharString name="Wcircumflex">
          294 -26 callgsubr
          227 827 -73 callgsubr
          endchar
        </CharString>
        <CharString name="Wdieresis">
          294 -26 callgsubr
          266 716 rmoveto
          -67 callgsubr
        </CharString>
        <CharString name="Wgrave">
          294 -26 callgsubr
          140 827 -30 callgsubr
        </CharString>
        <CharString name="X">
          -3 426 7 rmoveto
          -5 3 -80 callgsubr
          hhcurveto
          16 hlineto
          6 1 4 5 -3 hvcurveto
          -189 334 178 291 rlineto
          7 4 259 callgsubr
          -16 358 callsubr
          -4 hvcurveto
          -163 -269 rlineto
          -4 hlineto
          -164 269 rlineto
          7 -4 -4 2 -6 hhcurveto
          -14 hlineto
          -5 -3 -4 -5 3 hvcurveto
          179 -292 -190 -333 rlineto
          -5 -3 1 -4 6 hhcurveto
          16 hlineto
          5 3 2 5 3 hvcurveto
          176 310 rlineto
          4 hlineto
          endchar
        </CharString>
        <CharString name="Y">
          14 callgsubr
          endchar
        </CharString>
        <CharString name="Yacute">
          14 callgsubr
          79 836 -72 callsubr
        </CharString>
        <CharString name="Ycircumflex">
          14 callgsubr
          31 827 -73 callgsubr
          endchar
        </CharString>
        <CharString name="Ydieresis">
          14 callgsubr
          70 716 rmoveto
          -67 callgsubr
        </CharString>
        <CharString name="Ygrave">
          14 callgsubr
          -47 827 -30 callgsubr
        </CharString>
        <CharString name="Z">
          32 callgsubr
          endchar
        </CharString>
        <CharString name="Zacute">
          32 callgsubr
          281 811 -72 callsubr
        </CharString>
        <CharString name="Zcaron">
          32 callgsubr
          206 682 -66 callsubr
          endchar
        </CharString>
        <CharString name="Zdotaccent">
          32 callgsubr
          200 697 2 callgsubr
          endchar
        </CharString>
        <CharString name="a">
          1 -39 callsubr
          endchar
        </CharString>
        <CharString name="aacute">
          1 -39 callsubr
          124 703 -72 callsubr
        </CharString>
        <CharString name="abreve">
          1 -39 callsubr
          -32 694 -59 callgsubr
        </CharString>
        <CharString name="acircumflex">
          1 -39 callsubr
          81 694 -73 callgsubr
          endchar
        </CharString>
        <CharString name="acute">
          -236 155 703 -72 callsubr
        </CharString>
        <CharString name="acute.uc">
          -236 155 836 -72 callsubr
        </CharString>
        <CharString name="adieresis">
          1 -39 callsubr
          124 583 rmoveto
          -67 callgsubr
        </CharString>
        <CharString name="ae">
          52 callgsubr
          endchar
        </CharString>
        <CharString name="aeacute">
          52 callgsubr
          67 566 -72 callsubr
        </CharString>
        <CharString name="agrave">
          1 -39 callsubr
          17 694 -30 callgsubr
        </CharString>
        <CharString name="amacron">
          1 -39 callsubr
          172 627 rmoveto
          -105 callgsubr
          -204 -4 callgsubr
          endchar
        </CharString>
        <CharString name="ampersand">
          95 214 28 rmoveto
          -61 callgsubr
          90 vlineto
          64 33 38 61 4 vhcurveto
          196 -225 rlineto
          -49 -9 -35 -28 -57 hhcurveto
          188 -22 rmoveto
          -4 4 4 -2 5 hhcurveto
          19 hlineto
          4 0 4 2 -2 hvcurveto
          -218 252 rlineto
          220 -103 callgsubr
          -244 hlineto
          -67 77 rlineto
          -34 37 -9 24 44 vvcurveto
          41 -27 callsubr
          22 hlineto
          67 37 -38 -68 322 callsubr
          49 169 callsubr
          -22 hlineto
          -81 -53 -50 -83 hvcurveto
          -43 vlineto
          -48 15 -31 33 -39 vhcurveto
          -79 -2 -28 -64 -58 vvcurveto
          -92 vlineto
          6 callsubr
          85 hlineto
          61 46 28 50 18 hvcurveto
          endchar
        </CharString>
        <CharString name="aogonek">
          1 204 28 rmoveto
          120 callsubr
          175 -99 callgsubr
          -342 vlineto
          -69 -47 -35 -65 vhcurveto
          -72 482 rmoveto
          -16 callgsubr
          74 hlineto
          63 29 26 26 14 hvcurveto
          4 -35 hlineto
          163 callgsubr
          endchar
        </CharString>
        <CharString name="approxequal">
          15 164 403 rmoveto
          109 callgsubr
          -163 vmoveto
          109 callgsubr
          endchar
        </CharString>
        <CharString name="aring">
          1 169 105 callsubr
          85 -623 31 callsubr
          -206 -18 callsubr
          184 276 callgsubr
          236 vlineto
          68 37 41 67 vhcurveto
          175 -99 callgsubr
          endchar
        </CharString>
        <CharString name="asciicircum">
          -44 360 374 rmoveto
          -6 4 3 -3 7 hhcurveto
          10 hlineto
          8 3 5 7 -4 hvcurveto
          -134 255 rlineto
          7 -4 -5 4 -10 hhcurveto
          -23 hlineto
          -10 -5 -4 -7 -4 hvcurveto
          -134 -255 rlineto
          -7 -4 3 -5 8 hhcurveto
          10 hlineto
          7 3 3 6 4 hvcurveto
          133 252 rlineto
          endchar
        </CharString>
        <CharString name="asciitilde">
          15 164 325 rmoveto
          109 callgsubr
          endchar
        </CharString>
        <CharString name="asterisk">
          -89 220 634 rmoveto
          -64 callgsubr
          -15 -89 callgsubr
          -17 vlineto
          -48 10 -44 5 -14 vhcurveto
          7 14 9 44 48 vvcurveto
          -101 -196 rmoveto
          -4 -6 1 -4 4 -2 12 -9 rcurveline
          5 -3 3 0 3 5 11 15 rcurveline
          28 38 17 42 5 14 -14 -7 -33 -30 -28 -39 rrcurveto
          -37 129 rmoveto
          -7 2 -3 -2 -1 -5 -5 -14 rcurveline
          -2 -5 2 -3 6 -2 17 -6 rcurveline
          -14 45 45 -4 15 hhcurveto
          -11 11 -39 22 -46 15 rrcurveto
          218 -26 rmoveto
          7 2 1 5 -2 4 -4 14 rcurveline
          -2 6 -2 1 -6 -2 -18 -5 rcurveline
          -46 -15 -38 -23 -12 -9 15 -3 45 6 45 14 rrcurveto
          -46 -126 rmoveto
          4 -6 4 1 4 3 12 8 rcurveline
          5 4 1 3 -4 4 -11 15 rcurveline
          -28 39 -34 29 -12 9 2 -15 19 -41 28 -39 rrcurveto
          endchar
        </CharString>
        <CharString name="at">
          258 480 217 rmoveto
          -69 -46 -35 -65 vhcurveto
          -1 -61 callsubr
          101 -49 callgsubr
          103 -99 callgsubr
          41 -482 rmoveto
          320 callsubr
          -111 -106 88 138 hvcurveto
          153 vlineto
          138 106 88 111 vhcurveto
          194 7 callgsubr
          -246 -27 callgsubr
          -12 hlineto
          -7 callsubr
          332 -53 callgsubr
          -134 151 callsubr
          -103 vlineto
          -83 53 -53 81 39 46 10 42 23 vhcurveto
          4 -25 hlineto
          -17 13 -12 15 vhcurveto
          23 134 callgsubr
          248 6 callgsubr
          -192 hlineto
          -120 -129 -87 -168 hvcurveto
          -151 vlineto
          -168 129 -87 120 vhcurveto
          endchar
        </CharString>
        <CharString name="atilde">
          3 -39 callsubr
          -36 655 rmoveto
          153 callsubr
          -52 callgsubr
          endchar
        </CharString>
        <CharString name="b">
          1 80 9 rmoveto
          -98 callsubr
          206 134 callgsubr
          248 6 callgsubr
          -74 hlineto
          -63 -29 -26 -26 -14 hvcurveto
          -4 226 57 callsubr
          39 -666 219 callsubr
          352 164 callsubr
          -246 -27 callgsubr
          endchar
        </CharString>
        <CharString name="backslash">
          -104 288 11 rmoveto
          -8 3 4 -3 6 hhcurveto
          13 hlineto
          6 5 4 8 -3 hvcurveto
          -218 620 rlineto
          8 -3 -3 3 -7 306 callsubr
          -2 -6 -8 3 hvcurveto
          endchar
        </CharString>
        <CharString name="bar">
          -297 115 634 19 callsubr
          endchar
        </CharString>
        <CharString name="braceleft">
          -204 220 643 rmoveto
          -71 -33 -53 -83 hvcurveto
          -141 vlineto
          -61 -24 -21 -43 -94 callgsubr
          vhcurveto
          -12 vlineto
          -92 callgsubr
          43 24 -21 -61 vhcurveto
          -140 vlineto
          -83 33 -53 71 vhcurveto
          4 -103 callgsubr
          -4 hlineto
          -57 -17 34 callgsubr
          140 vlineto
          49 -19 35 -33 11 vhcurveto
          33 11 19 34 50 vvcurveto
          141 vlineto
          68 17 41 57 vhcurveto
          4 190 callsubr
        </CharString>
        <CharString name="braceright">
          -204 157 507 rmoveto
          83 -33 53 -71 313 callsubr
          57 17 -41 -68 hvcurveto
          -141 vlineto
          -50 19 -34 33 -11 vhcurveto
          -33 -11 -19 -35 -49 vvcurveto
          -140 vlineto
          -68 -17 -41 -57 313 callsubr
          71 33 53 83 hvcurveto
          140 vlineto
          61 24 21 43 -90 callgsubr
          vhcurveto
          12 vlineto
          -87 callsubr
          -43 -24 21 61 vhcurveto
          endchar
        </CharString>
        <CharString name="bracketleft">
          -220 198 -102 13 callsubr
          -99 hlineto
          -7 callsubr
          673 -95 callgsubr
          99 -103 callgsubr
          -130 -89 callgsubr
          -727 vlineto
          -98 callsubr
          endchar
        </CharString>
        <CharString name="bracketright">
          -220 60 -94 rmoveto
          -100 callgsubr
          130 hlineto
          -84 callgsubr
          727 vlineto
          7 -3 2 -5 149 callsubr
          99 -99 callgsubr
          -673 -57 callsubr
          -99 318 callgsubr
        </CharString>
        <CharString name="breve">
          -166 70 694 -59 callgsubr
        </CharString>
        <CharString name="breve.uc">
          -166 70 827 -59 callgsubr
        </CharString>
        <CharString name="brokenbar">
          -304 113 258 rmoveto
          -64 callgsubr
          -17 -89 callgsubr
          -249 342 callgsubr
          625 vmoveto
          -64 callgsubr
          -17 -89 callgsubr
          -249 342 callgsubr
          endchar
        </CharString>
        <CharString name="bullet">
          -230 167 388 rmoveto
          -64 callgsubr
          -51 -89 callgsubr
          -139 vlineto
          -98 callsubr
          51 hlineto
          -84 callgsubr
          endchar
        </CharString>
        <CharString name="c">
          51 callsubr
          endchar
        </CharString>
        <CharString name="cacute">
          51 callsubr
          -59 695 -72 callsubr
        </CharString>
        <CharString name="caron">
          -176 155 574 -66 callsubr
          endchar
        </CharString>
        <CharString name="caron.uc">
          -176 155 707 -66 callsubr
          endchar
        </CharString>
        <CharString name="ccaron">
          51 callsubr
          -126 566 -66 callsubr
          endchar
        </CharString>
        <CharString name="ccedilla">
          -107 346 482 rmoveto
          155 callsubr
          36 hlineto
          -40 -45 rlineto
          182 callgsubr
          -23 -15 -11 71 callsubr
          46 50 rlineto
          72 -103 callgsubr
          -142 48 callsubr
          endchar
        </CharString>
        <CharString name="cdotaccent">
          51 callsubr
          -143 581 2 callgsubr
          endchar
        </CharString>
        <CharString name="cedilla">
          -243 77 -45 rmoveto
          182 callgsubr
          -23 -15 -11 71 callsubr
          65 70 rlineto
          -35 hlineto
          endchar
        </CharString>
        <CharString name="cedilla.uc">
          -243 77 -45 rmoveto
          182 callgsubr
          -25 -15 -9 71 callsubr
          65 70 rlineto
          -35 hlineto
          endchar
        </CharString>
        <CharString name="cent">
          -87 267 -89 196 callgsubr
          80 91 vlineto
          -104 callgsubr
          -162 48 callsubr
          162 -103 callgsubr
          -91 95 57 callsubr
          -95 -41 vlineto
          -16 callgsubr
          41 -80 351 callgsubr
        </CharString>
        <CharString name="circumflex">
          -176 184 694 -73 callgsubr
          endchar
        </CharString>
        <CharString name="circumflex.uc">
          -176 184 827 -73 callgsubr
          endchar
        </CharString>
        <CharString name="colon">
          -310 112 128 27 callsubr
          492 vmoveto
          -7 callgsubr
          -119 vlineto
          74 callgsubr
          endchar
        </CharString>
        <CharString name="comma">
          -310 112 128 -1 callsubr
          endchar
        </CharString>
        <CharString name="commaaccent">
          -497 237 -41 -10 callgsubr
          -191 -24 callsubr
          endchar
        </CharString>
        <CharString name="copyright">
          231 209 643 rmoveto
          -6 callsubr
          -371 -39 callgsubr
          310 134 callgsubr
          127 callsubr
          -310 -615 rmoveto
          96 callgsubr
          310 7 callgsubr
          -369 -27 callgsubr
          -24 374 rmoveto
          83 -43 33 -81 vhcurveto
          -21 hlineto
          -81 -43 -33 -83 hvcurveto
          -168 vlineto
          -83 43 -33 81 vhcurveto
          21 hlineto
          81 43 33 83 hvcurveto
          24 -96 callgsubr
          -23 vlineto
          -68 -27 -21 -67 vhcurveto
          -21 315 callsubr
          68 hvcurveto
          166 vlineto
          68 27 21 67 vhcurveto
          21 hlineto
          67 27 -21 -68 hvcurveto
          -17 vlineto
          -91 callsubr
          endchar
        </CharString>
        <CharString name="d">
          1 127 callgsubr
          endchar
        </CharString>
        <CharString name="dagger">
          -65 217 119 callgsubr
          0 6 275 43 vvcurveto
          36 -3 55 -1 20 197 callsubr
          145 3 rlineto
          -1 -23 -2 -56 -31 vvcurveto
          -44 6 -275 0 vhcurveto
          -98 callsubr
          endchar
        </CharString>
        <CharString name="daggerdbl">
          -65 204 438 rmoveto
          -1 -24 -2 -62 -32 vvcurveto
          -33 2 -60 1 -23 vhcurveto
          -145 4 rlineto
          266 callgsubr
          146 4 -4 -173 rlineto
          -91 callsubr
          -4 173 146 -4 rlineto
          141 callsubr
          -146 -4 rlineto
          1 22 3 57 36 vvcurveto
          36 -3 62 -1 21 197 callsubr
          endchar
        </CharString>
        <CharString name="dcaron">
          11 127 callgsubr
          311 694 -1 callsubr
          endchar
        </CharString>
        <CharString name="dcroat">
          35 388 276 callgsubr
          166 -49 callgsubr
          72 hlineto
          357 callsubr
          -110 -308 233 callsubr
          545 -95 callgsubr
          66 -103 callgsubr
          -66 hlineto
          -7 callsubr
          96 -96 callgsubr
          -96 -57 callsubr
          -169 -93 callsubr
          169 17 callgsubr
          -4 vlineto
          290 callgsubr
          -168 -39 callgsubr
          endchar
        </CharString>
        <CharString name="degree">
          -221 144 536 rmoveto
          -12 hlineto
          -28 -6 8 27 hvcurveto
          72 vlineto
          27 6 8 28 vhcurveto
          12 hlineto
          28 6 -8 -27 hvcurveto
          -72 vlineto
          -27 -6 -8 -28 vhcurveto
          12 -25 rmoveto
          30 20 18 31 hvcurveto
          97 vlineto
          30 -20 17 -30 vhcurveto
          -37 hlineto
          -31 -18 -17 -30 hvcurveto
          -97 vlineto
          -31 18 -18 31 vhcurveto
          endchar
        </CharString>
        <CharString name="dieresis">
          -171 226 583 rmoveto
          -67 callgsubr
        </CharString>
        <CharString name="dieresis.uc">
          -171 226 716 rmoveto
          -67 callgsubr
        </CharString>
        <CharString name="divide">
          25 246 434 107 callsubr
          64 -96 callgsubr
          192 -191 13 callsubr
          -354 -93 callsubr
          162 -163 107 callsubr
          64 245 callsubr
        </CharString>
        <CharString name="dollar">
          1 270 -98 196 callgsubr
          89 11 vlineto
          -14 callsubr
          74 vlineto
          98 -56 31 -77 vhcurveto
          -81 hlineto
          -70 -34 24 77 hvcurveto
          68 -49 callgsubr
          80 7 callgsubr
          -29 vlineto
          -91 callsubr
          30 6 callgsubr
          -11 89 57 callsubr
          -89 -39 vlineto
          -6 callsubr
          -69 vlineto
          -100 58 -28 82 vhcurveto
          72 hlineto
          68 38 -25 -79 hvcurveto
          -71 -27 callgsubr
          -80 -61 callsubr
          33 -96 callgsubr
          -34 -39 callgsubr
          39 -89 351 callgsubr
        </CharString>
        <CharString name="dotaccent">
          -327 70 589 2 callgsubr
          endchar
        </CharString>
        <CharString name="dotaccent.uc">
          -327 70 722 2 callgsubr
          endchar
        </CharString>
        <CharString name="dotlessi">
          -297 31 callgsubr
          endchar
        </CharString>
        <CharString name="dvDDH_DDHA">
          -10 285 callsubr
          -102 248 callgsubr
          -77 vlineto
          -59 27 -44 45 -20 vhcurveto
          -43 -21 -26 -42 -58 vvcurveto
          -77 293 callgsubr
          hlineto
          81 43 43 83 hvcurveto
          5 -9 callsubr
          -4 256 callgsubr
          75 -49 callgsubr
          97 hlineto
          81 43 43 83 hvcurveto
          5 -9 callsubr
          -4 256 callgsubr
          75 4 callsubr
          120 -95 callgsubr
          102 -106 callgsubr
          endchar
        </CharString>
        <CharString name="dvDD_GA">
          48 -76 callsubr
          395 255 callsubr
          -187 hlineto
          -81 -43 -31 352 callsubr
          -31 81 vhcurveto
          131 214 callgsubr
          -45 vlineto
          -58 -27 -21 -67 vhcurveto
          -146 -12 callgsubr
          -75 31 -34 62 -6 vhcurveto
          -91 vlineto
          -80 -43 -46 callsubr
          53 36 94 hvcurveto
          90 137 vlineto
          8 8 0 1 7 hvcurveto
          -310 vlineto
          -91 callsubr
          315 vlineto
          47 13 24 32 55 vvcurveto
          47 vlineto
          73 -43 31 -81 vhcurveto
          -131 314 callgsubr
          209 113 callsubr
        </CharString>
        <CharString name="dvD_BHA.aSimp">
          477 414 -40 rmoveto
          100 callgsubr
          -10 hlineto
          -34 callgsubr
          243 791 140 callsubr
          -495 hlineto
          26 callsubr
          143 callgsubr
          94 149 callgsubr
          223 hlineto
          7 2 -3 -5 hvcurveto
          -295 vlineto
          -7 3 -2 5 vhcurveto
          14 hlineto
          -107 callgsubr
          endchar
        </CharString>
        <CharString name="dvH_VA.aTrad">
          26 431 241 rmoveto
          -75 vlineto
          -68 -27 -41 -67 vhcurveto
          -8 hlineto
          -67 -27 31 58 71 30 22 64 2 hvcurveto
          -330 382 -91 callgsubr
          348 -99 callgsubr
          -109 -57 callsubr
          -148 145 callgsubr
          -67 -39 callgsubr
          251 -103 callgsubr
          -251 -61 callsubr
          65 vlineto
          67 35 42 64 vhcurveto
          44 hlineto
          -22 -17 -16 -29 -49 vvcurveto
          -77 43 -40 81 vhcurveto
          8 hlineto
          81 43 53 83 hvcurveto
          96 -104 callsubr
          -253 246 callgsubr
          63 29 25 65 hvcurveto
          171 67 callgsubr
          129 -106 callgsubr
          endchar
        </CharString>
        <CharString name="dvK_SHA.a">
          610 576 455 rmoveto
          -95 hlineto
          86 callgsubr
          101 -106 callgsubr
          -488 -4 callgsubr
          339 -99 callgsubr
          -364 vlineto
          -101 callsubr
          -81 -53 -50 -83 hvcurveto
          -123 vlineto
          6 callsubr
          -3 callgsubr
          -90 callsubr
          hvcurveto
          317 vlineto
          20 callsubr
          117 hlineto
          -84 callgsubr
          66 -55 callsubr
          -182 269 rlineto
          27 callgsubr
          417 120 rmoveto
          216 callsubr
          -596 vlineto
          -7 3 -2 5 vhcurveto
          14 hlineto
          -107 callgsubr
          endchar
        </CharString>
        <CharString name="dvNG_GA">
          48 479 393 rmoveto
          -74 callgsubr
          92 callsubr
          -500 230 -91 callgsubr
          395 255 callsubr
          -187 hlineto
          -81 -43 -31 352 callsubr
          -31 81 vhcurveto
          131 214 callgsubr
          -45 vlineto
          -58 -27 -21 -67 vhcurveto
          -146 -12 callgsubr
          -75 31 -34 62 -6 vhcurveto
          -91 vlineto
          -80 -43 -46 callsubr
          53 36 94 hvcurveto
          90 137 vlineto
          8 8 0 1 7 hvcurveto
          -310 vlineto
          -91 callsubr
          315 vlineto
          47 13 24 32 55 vvcurveto
          47 vlineto
          73 -43 31 -81 vhcurveto
          -131 314 callgsubr
          209 113 callsubr
        </CharString>
        <CharString name="dvNG_MA">
          206 449 393 rmoveto
          -74 callgsubr
          92 callsubr
          104 -402 284 callsubr
          68 vlineto
          52 11 28 33 58 vvcurveto
          33 281 callgsubr
          117 vlineto
          -93 callgsubr
          vhcurveto
          173 -99 callgsubr
          -574 33 129 callsubr
          -99 228 callsubr
          -31 352 callsubr
          -31 81 vhcurveto
          192 callgsubr
          -31 -17 callsubr
          -83 38 -33 76 vhcurveto
          96 hlineto
          14 -209 hlineto
          -91 callsubr
          101 -71 callsubr
          -195 vlineto
          -91 callsubr
          837 -107 callsubr
          endchar
        </CharString>
        <CharString name="dvNY_CA">
          466 290 313 rmoveto
          30 72 callsubr
          -114 -56 callsubr
          40 -95 callgsubr
          121 -103 callgsubr
          -121 hlineto
          -7 callsubr
          273 84 rmoveto
          218 callsubr
          -51 vlineto
          6 callsubr
          79 -45 callsubr
          -151 hlineto
          -7 3 -2 5 vhcurveto
          14 hlineto
          -107 callgsubr
          -965 -4 callgsubr
          825 -99 callgsubr
          -349 249 callgsubr
          -79 -44 callsubr
          49 117 callsubr
          hlineto
          endchar
        </CharString>
        <CharString name="dvOm.a01">
          345 397 831 196 callgsubr
          -22 callsubr
          40 -147 -28 callgsubr
          142 -61 rmoveto
          -99 callsubr
          131 hlineto
          51 42 -23 -80 hvcurveto
          -331 65 callgsubr
          332 vlineto
          94 -52 37 -72 vhcurveto
          endchar
        </CharString>
        <CharString name="dvOm.a02">
          345 397 831 196 callgsubr
          -22 callsubr
          40 -147 -28 callgsubr
          257 -61 rmoveto
          -81 -43 -37 -83 hvcurveto
          -50 vlineto
          -91 callsubr
          49 vlineto
          68 27 25 67 vhcurveto
          15 hlineto
          67 27 -25 -68 hvcurveto
          -341 65 callgsubr
          342 vlineto
          84 -43 37 -81 vhcurveto
          endchar
        </CharString>
        <CharString name="dvSHA_MatraVocalicR">
          268 callsubr
          348 -488 rmoveto
          247 callgsubr
          12 vlineto
          1 vlineto
          2 vlineto
          571 -107 callsubr
          -115 330 callgsubr
          -384 vlineto
          -184 117 rlineto
          45 30 49 47 84 vvcurveto
          92 -47 32 -78 -84 -44 -32 -91 -80 45 -45 53 -34 vhcurveto
          6 -4 -135 -87 91 callsubr
          144 93 212 -135 rlineto
          -161 -29 vlineto
          269 callgsubr
          endchar
        </CharString>
        <CharString name="dvTTH_TTHA">
          19 402 273 340 callgsubr
          70 254 callsubr
          -493 vmoveto
          -28 callsubr
          -90 -61 callsubr
          70 275 callsubr
          703 238 callsubr
          -28 253 callsubr
          -72 -39 callgsubr
          90 hlineto
          23 20 4 8 18 hvcurveto
          -9 253 callsubr
          -72 -39 callgsubr
          90 134 callgsubr
          72 111 callsubr
          28 vlineto
          27 24 16 36 45 vvcurveto
          72 111 callsubr
          28 230 callsubr
        </CharString>
        <CharString name="dvTT_GA">
          13 -76 callsubr
          367 -99 callgsubr
          -122 -57 callsubr
          -157 151 callsubr
          -77 vlineto
          -69 37 -49 59 -14 vhcurveto
          -103 vlineto
          -80 -43 -46 callsubr
          53 36 94 hvcurveto
          99 8 vlineto
          120 hlineto
          11 11 1 2 10 hvcurveto
          -321 vlineto
          -91 callsubr
          330 vlineto
          45 21 27 44 59 vvcurveto
          50 -96 callgsubr
          -49 -27 callgsubr
          -120 -61 callsubr
          75 -49 callgsubr
          180 -17 callgsubr
          308 callgsubr
          107 -106 callgsubr
          endchar
        </CharString>
        <CharString name="dvT_KH_NA">
          825 876 283 rmoveto
          -68 -31 -38 -67 vhcurveto
          -10 hlineto
          359 callgsubr
          40 vlineto
          68 31 38 67 vhcurveto
          10 hlineto
          67 31 -38 -68 hvcurveto
          -877 300 -91 callgsubr
          528 335 callgsubr
          -60 hlineto
          60 -4 -34 43 -62 hhcurveto
          -88 231 callsubr
          -168 vlineto
          -80 callsubr
          168 vlineto
          126 callsubr
          89 353 callsubr
          -19 vlineto
          17 -21 182 -265 -29 callgsubr
          -192 281 rlineto
          50 -13 callsubr
          608 -99 callgsubr
          -214 -57 callsubr
          -187 hlineto
          -51 -35 -28 -43 hvcurveto
          -4 27 hlineto
          83 -47 50 -81 vhcurveto
          -10 hlineto
          -81 -47 -50 -83 hvcurveto
          -42 vlineto
          -83 47 33 callsubr
          10 hlineto
          75 45 42 72 7 hvcurveto
          4 hlineto
          -19 6 -21 5 -15 141 callgsubr
          186 -99 callgsubr
          -324 vlineto
          -7 3 -2 5 vhcurveto
          14 hlineto
          -107 callgsubr
          endchar
        </CharString>
        <CharString name="dvT_S_NA">
          682 1049 212 callgsubr
          -43 -27 -18 -29 -12 hvcurveto
          -252 46 callgsubr
          472 -99 callgsubr
          -1050 -60 callsubr
          521 -47 callsubr
          -35 hlineto
          61 -3 -35 46 -62 hhcurveto
          -108 231 callsubr
          -168 vlineto
          -80 callsubr
          168 vlineto
          126 callsubr
          109 hlineto
          47 23 -32 -55 -58 callgsubr
          -162 275 rlineto
          352 hlineto
          -1 -5 0 -4 -5 vvcurveto
          -20 6 -27 184 callsubr
          188 -99 callgsubr
          -324 vlineto
          -7 3 -2 5 vhcurveto
          14 hlineto
          -107 callgsubr
          endchar
        </CharString>
        <CharString name="e">
          -60 callgsubr
          endchar
        </CharString>
        <CharString name="eacute">
          -60 callgsubr
          100 703 -72 callsubr
        </CharString>
        <CharString name="ebreve">
          -60 callgsubr
          -56 694 -59 callgsubr
        </CharString>
        <CharString name="ecaron">
          -60 callgsubr
          39 574 -66 callsubr
          endchar
        </CharString>
        <CharString name="ecircumflex">
          -60 callgsubr
          68 694 -73 callgsubr
          endchar
        </CharString>
        <CharString name="edieresis">
          -60 callgsubr
          107 583 rmoveto
          -67 callgsubr
        </CharString>
        <CharString name="edotaccent">
          -60 callgsubr
          29 589 2 callgsubr
          endchar
        </CharString>
        <CharString name="egrave">
          -60 callgsubr
          -6 694 -30 callgsubr
        </CharString>
        <CharString name="eight">
          16 309 hmoveto
          304 callgsubr
          67 vlineto
          253 callgsubr
          338 vmoveto
          279 callsubr
          -105 -310 rmoveto
          -61 callgsubr
          70 290 callsubr
          -70 318 callsubr
        </CharString>
        <CharString name="ellipsis">
          90 512 128 27 callsubr
          -200 119 27 callsubr
          -200 119 27 callsubr
          endchar
        </CharString>
        <CharString name="emacron">
          -60 callgsubr
          146 627 rmoveto
          -105 callgsubr
          -204 -4 callgsubr
          endchar
        </CharString>
        <CharString name="emdash">
          15 40 314 rmoveto
          -100 callgsubr
          414 -103 callgsubr
          -414 318 callgsubr
        </CharString>
        <CharString name="endash">
          -85 363 306 rmoveto
          7 2 3 5 hvcurveto
          12 297 callgsubr
          endchar
        </CharString>
        <CharString name="eng">
          6 294 307 callsubr
          127 callsubr
          -74 265 callgsubr
          14 hlineto
          301 callgsubr
          -369 -27 callgsubr
          -20 83 callsubr
        </CharString>
        <CharString name="eogonek">
          -6 396 273 93 callsubr
          -278 hlineto
          73 callsubr
          -192 137 rmoveto
          -16 callgsubr
          115 hlineto
          -52 -66 rlineto
          -17 -14 6 -27 354 callgsubr
          17 191 callgsubr
          61 hlineto
          1 callsubr
          endchar
        </CharString>
        <CharString name="equal">
          25 84 248 rmoveto
          -99 callsubr
          354 -103 callgsubr
          -354 174 rmoveto
          -99 callsubr
          354 190 callsubr
        </CharString>
        <CharString name="eth">
          -14 388 137 rmoveto
          301 callsubr
          72 hlineto
          357 callsubr
          -115 299 rmoveto
          106 90 4 3 0 5 -3 4 rlinecurve
          -5 7 -4 4 -3 0 -5 -3 rlinecurve
          -107 -91 -88 97 -4 5 -5 0 -4 -3 rlinecurve
          -6 -5 -5 -4 0 -5 5 -6 rlinecurve
          86 -97 -102 -86 -5 -5 0 -4 3 -4 rlinecurve
          5 -7 4 -4 3 0 5 3 rlinecurve
          104 88 111 -125 rlineto
          18 -23 7 -19 -34 vvcurveto
          252 callsubr
          46 -14 27 -18 21 vhcurveto
          endchar
        </CharString>
        <CharString name="exclam">
          -260 135 128 rmoveto
          -64 callgsubr
          -17 -89 callgsubr
          -119 342 callgsubr
          -26 205 rmoveto
          -6 1 1 -5 5 hhcurveto
          4 hlineto
          5 1 5 6 1 hvcurveto
          3 22 7 185 129 vvcurveto
          84 vlineto
          -7 callgsubr
          -84 vlineto
          -129 6 -185 3 -22 vhcurveto
          endchar
        </CharString>
        <CharString name="exclamdown">
          -260 116 440 rmoveto
          -5 -1 -5 -6 -1 hvcurveto
          -3 -22 -6 -185 -129 vvcurveto
          -84 vlineto
          74 callgsubr
          84 vlineto
          129 -7 185 -3 22 vhcurveto
          6 -1 -1 5 -5 hhcurveto
          7 66 196 callgsubr
          119 -53 callgsubr
          -17 -89 callgsubr
          -119 vlineto
          -98 callsubr
          endchar
        </CharString>
        <CharString name="f">
          -207 164 510 219 callsubr
          50 vlineto
          68 21 39 67 vhcurveto
          15 -46 callgsubr
          -81 -37 -51 -83 hvcurveto
          -51 -57 callsubr
          -68 -93 callsubr
          68 -99 callgsubr
          -465 vlineto
          -91 callsubr
          465 -95 callgsubr
          94 190 callsubr
        </CharString>
        <CharString name="five">
          -21 282 371 rmoveto
          112 callgsubr
          -128 -27 callgsubr
          -78 125 callgsubr
          78 134 callgsubr
          130 169 callsubr
          -96 hlineto
          -53 -24 -26 -23 -9 hvcurveto
          265 297 vlineto
          -104 callgsubr
          -319 -89 callgsubr
          -307 vlineto
          -98 callsubr
          18 hlineto
          20 -8 53 78 hhcurveto
          endchar
        </CharString>
        <CharString name="florin">
          -11 50 -133 rmoveto
          81 48 51 83 17 hvcurveto
          77 361 rlineto
          5 1 3 3 6 hhcurveto
          110 360 callgsubr
          5 hvcurveto
          10 vlineto
          5 -3 3 -7 vhcurveto
          -102 hlineto
          -6 -2 3 5 1 hvcurveto
          35 164 rlineto
          65 14 32 42 64 hhcurveto
          29 hlineto
          7 3 2 6 hvcurveto
          12 vlineto
          5 -3 3 -7 vhcurveto
          -23 hlineto
          -81 -47 -51 -83 -18 hvcurveto
          -35 -165 rlineto
          -5 -1 -3 -3 -7 hhcurveto
          -89 hlineto
          -6 -3 -74 callsubr
          -10 vlineto
          -5 3 -3 7 vhcurveto
          82 hlineto
          6 3 -2 -8 -2 hvcurveto
          -76 -358 rlineto
          -64 -14 -34 -43 -62 hhcurveto
          -26 hlineto
          -7 -3 -4 -5 hvcurveto
          -11 vlineto
          -5 3 -3 7 vhcurveto
          endchar
        </CharString>
        <CharString name="four">
          18 382 155 callgsubr
        </CharString>
        <CharString name="fraction">
          -377 306 629 rmoveto
          6 5 0 8 -7 hhcurveto
          -17 hlineto
          -7 -4 -3 -8 -6 hvcurveto
          -457 -620 rlineto
          -8 -6 3 -4 6 hhcurveto
          16 hlineto
          8 4 3 8 6 hvcurveto
          endchar
        </CharString>
        <CharString name="g">
          6 393 162 -10 callsubr
          endchar
        </CharString>
        <CharString name="gbreve">
          6 393 162 -10 callsubr
          -27 664 -59 callgsubr
        </CharString>
        <CharString name="gcircumflex">
          6 393 162 -10 callsubr
          82 664 -73 callgsubr
          endchar
        </CharString>
        <CharString name="gdotaccent">
          6 393 162 -10 callsubr
          51 559 2 callgsubr
          endchar
        </CharString>
        <CharString name="germandbls">
          42 248 340 rmoveto
          -100 callsubr
          -13 vlineto
          -5 2 -2 7 vhcurveto
          64 hlineto
          67 55 -41 -68 hvcurveto
          -66 -27 callgsubr
          -103 -93 callsubr
          103 134 callgsubr
          68 vlineto
          58 -37 49 -50 15 vhcurveto
          43 21 34 43 58 vvcurveto
          59 6 callgsubr
          -101 151 callsubr
          -498 vlineto
          -91 callsubr
          497 -49 callgsubr
          101 7 callgsubr
          -57 vlineto
          -68 -45 -41 -67 vhcurveto
          endchar
        </CharString>
        <CharString name="grave">
          -236 121 694 -30 callgsubr
        </CharString>
        <CharString name="grave.uc">
          -236 121 827 -30 callgsubr
        </CharString>
        <CharString name="greater">
          25 75 461 rmoveto
          -5 1 -3 6 -2 vhcurveto
          337 -130 -337 -130 rlineto
          -6 -2 -1 -3 -5 vvcurveto
          -14 vlineto
          -6 3 -3 8 3 vhcurveto
          352 139 311 callgsubr
          139 rlineto
          -8 3 -3 -3 -6 vvcurveto
          endchar
        </CharString>
        <CharString name="greaterequal">
          15 70 232 rmoveto
          -6 3 -3 8 3 vhcurveto
          352 117 311 callgsubr
          118 rlineto
          -8 3 -3 -3 -6 vvcurveto
          -14 vlineto
          -5 1 -3 6 -2 vhcurveto
          332 -109 -332 -108 rlineto
          -6 -2 -1 -3 -5 vvcurveto
          9 -83 rmoveto
          -99 callsubr
          354 190 callsubr
        </CharString>
        <CharString name="guillemotleft">
          -72 218 385 106 callsubr
          257 130 106 callsubr
          endchar
        </CharString>
        <CharString name="guillemotright">
          -72 200 255 106 callgsubr
          257 -130 106 callgsubr
          endchar
        </CharString>
        <CharString name="guilsinglleft">
          -204 218 385 106 callsubr
          endchar
        </CharString>
        <CharString name="guilsinglright">
          -204 200 255 106 callgsubr
          endchar
        </CharString>
        <CharString name="h">
          154 callsubr
          endchar
        </CharString>
        <CharString name="hbar">
          40 136 119 callgsubr
          299 164 callsubr
          -294 vlineto
          -91 callsubr
          295 6 callgsubr
          -74 hlineto
          -63 -29 -26 -26 -14 hvcurveto
          -4 166 24 callsubr
          169 -103 callgsubr
          -169 hlineto
          -7 callsubr
          96 -96 callgsubr
          -96 274 callsubr
          -545 vlineto
          -98 callsubr
          endchar
        </CharString>
        <CharString name="hcircumflex">
          154 callsubr
          197 757 -73 callgsubr
          endchar
        </CharString>
        <CharString name="hungarumlaut">
          -130 269 703 -6 callgsubr
        </CharString>
        <CharString name="hungarumlaut.uc">
          -130 269 836 -6 callgsubr
        </CharString>
        <CharString name="hyphen">
          -185 263 306 13 callsubr
          -214 83 callsubr
        </CharString>
        <CharString name="i">
          -297 31 callgsubr
          92 340 callsubr
          99 245 callsubr
        </CharString>
        <CharString name="iacute">
          -299 31 callgsubr
          89 202 -72 callsubr
        </CharString>
        <CharString name="ibreve">
          -296 31 callgsubr
          -80 193 -59 callgsubr
        </CharString>
        <CharString name="icircumflex">
          -297 31 callgsubr
          39 193 -73 callgsubr
          endchar
        </CharString>
        <CharString name="idieresis">
          -297 31 callgsubr
          78 82 rmoveto
          -67 callgsubr
        </CharString>
        <CharString name="igrave">
          -297 31 callgsubr
          -46 193 -30 callgsubr
        </CharString>
        <CharString name="ij">
          -97 181 137 callsubr
          124 726 2 callgsubr
          -200 -99 2 callgsubr
          -683 vmoveto
          45 callsubr
          endchar
        </CharString>
        <CharString name="imacron">
          -299 31 callgsubr
          116 126 rmoveto
          -105 callgsubr
          -204 -4 callgsubr
          endchar
        </CharString>
        <CharString name="iogonek">
          -297 93 510 329 callgsubr
          -484 vlineto
          163 callgsubr
          -14 191 329 callgsubr
          -99 vlineto
          -91 callsubr
          99 260 callsubr
        </CharString>
        <CharString name="itfLogo">
          1237 147 hmoveto
          207 671 -207 339 callsubr
          250 -671 rmoveto
          207 671 -207 hlineto
          249 -196 rmoveto
          208 196 -208 hlineto
          250 -671 rmoveto
          208 671 -208 339 callsubr
          -434 vmoveto
          207 196 -207 hlineto
          endchar
        </CharString>
        <CharString name="itfStar">
          175 663 452 rmoveto
          -28 -200 -6 -2 -34 hvcurveto
          -66 246 -8 -27 -53 -188 -8 -31 rlinecurve
          -261 8 25 -15 168 -108 28 -17 rlinecurve
          -96 -247 24 20 152 128 29 20 rlinecurve
          204 -168 -11 28 -71 189 -12 30 rlinecurve
          endchar
        </CharString>
        <CharString name="itilde">
          -297 31 callgsubr
          -88 154 rmoveto
          153 callsubr
          -52 callgsubr
          endchar
        </CharString>
        <CharString name="j">
          -297 -19 137 callsubr
          124 726 2 callgsubr
          endchar
        </CharString>
        <CharString name="jcircumflex">
          -297 -19 137 callsubr
          163 827 -73 callgsubr
          endchar
        </CharString>
        <CharString name="k">
          -77 102 148 callsubr
          104 270 rmoveto
          -2 -3 0 -6 2 -3 175 -249 rcurveline
          -8 6 6 -1 6 hhcurveto
          17 hlineto
          4 4 3 6 -5 hvcurveto
          -180 253 rlineto
          4 vlineto
          159 235 rlineto
          5 4 -2 4 -6 hhcurveto
          -14 hlineto
          -8 -4 -1 -6 -4 hvcurveto
          endchar
        </CharString>
        <CharString name="l">
          -297 195 callsubr
          endchar
        </CharString>
        <CharString name="lacute">
          -300 195 callsubr
          80 877 -72 callsubr
        </CharString>
        <CharString name="lcaron">
          -245 195 callsubr
          139 694 -1 callsubr
          endchar
        </CharString>
        <CharString name="ldot">
          -206 241 263 callsubr
          -134 -259 267 callsubr
          endchar
        </CharString>
        <CharString name="less">
          3 436 475 rmoveto
          6 -3 3 -8 -3 vhcurveto
          -352 -139 313 callgsubr
          -139 rlineto
          8 -3 3 3 6 vvcurveto
          14 vlineto
          5 -1 3 -6 2 vhcurveto
          -337 130 337 130 rlineto
          6 2 1 3 5 vvcurveto
          endchar
        </CharString>
        <CharString name="lessequal">
          15 79 163 rmoveto
          -99 callsubr
          354 -103 callgsubr
          9 83 rmoveto
          5 -1 3 -6 2 vhcurveto
          -332 108 332 109 rlineto
          6 2 1 3 5 vvcurveto
          14 vlineto
          6 -3 3 -8 -3 vhcurveto
          -352 -118 313 callgsubr
          -117 rlineto
          8 -3 3 3 6 vvcurveto
          endchar
        </CharString>
        <CharString name="lslash">
          -208 151 119 callgsubr
          417 vlineto
          91 52 324 callgsubr
          -91 -52 rlineto
          236 -96 callgsubr
          -253 vlineto
          -90 -51 325 callsubr
          90 51 rlineto
          -400 vlineto
          -98 callsubr
          endchar
        </CharString>
        <CharString name="m">
          264 276 callsubr
          42 73 callgsubr
          364 vlineto
          68 47 41 67 vhcurveto
          40 87 callgsubr
          -40 hlineto
          -43 -63 -20 -51 -21 hvcurveto
          45 -21 -43 26 -57 hhcurveto
          -44 265 callgsubr
          endchar
        </CharString>
        <CharString name="macron">
          -135 283 627 rmoveto
          -105 callgsubr
          -204 -4 callgsubr
          endchar
        </CharString>
        <CharString name="macron.uc">
          -135 283 757 13 callsubr
          -204 83 callsubr
        </CharString>
        <CharString name="minus">
          15 79 335 rmoveto
          -99 callsubr
          354 190 callsubr
        </CharString>
        <CharString name="multiply">
          -12 264 321 rmoveto
          117 117 5 5 -1 4 -4 3 rlinecurve
          -10 10 -3 4 -4 1 -5 -5 rlinecurve
          -117 -117 -117 117 -5 5 -4 -1 -3 -4 rlinecurve
          -10 -10 -4 -3 -1 -4 5 -5 rlinecurve
          117 -117 -117 -117 -5 -5 1 -4 4 -3 rlinecurve
          10 -10 3 -4 4 -1 5 5 rlinecurve
          117 117 117 -117 5 -5 4 1 3 4 rlinecurve
          10 10 4 3 1 4 -5 5 rlinecurve
          endchar
        </CharString>
        <CharString name="n">
          6 41 callsubr
          43 57 callsubr
          -492 vlineto
          -7 -80 callgsubr
          vhcurveto
          endchar
        </CharString>
        <CharString name="nacute">
          6 41 callsubr
          43 57 callsubr
          -492 vlineto
          -7 -80 callgsubr
          vhcurveto
          238 703 -72 callsubr
        </CharString>
        <CharString name="ncaron">
          6 41 callsubr
          43 57 callsubr
          -492 vlineto
          -7 -80 callgsubr
          vhcurveto
          161 574 -66 callsubr
          endchar
        </CharString>
        <CharString name="nine">
          -7 286 248 callsubr
          -92 151 callsubr
          -105 -39 callgsubr
          196 -129 hlineto
          -28 callsubr
          -186 107 callgsubr
          281 callsubr
          endchar
        </CharString>
        <CharString name="notequal">
          15 187 110 rmoveto
          9 4 4 7 2 hvcurveto
          35 99 rlineto
          196 -103 callgsubr
          -186 hlineto
          51 146 rlineto
          135 -103 callgsubr
          -125 hlineto
          34 99 rlineto
          8 3 -6 3 -5 hhcurveto
          -7 hlineto
          -9 -4 -4 -7 -2 hvcurveto
          -35 -99 rlineto
          -198 -93 callsubr
          188 hlineto
          -51 -146 rlineto
          -137 -93 callsubr
          127 hlineto
          -34 -99 rlineto
          -8 -3 4 -3 5 hhcurveto
          endchar
        </CharString>
        <CharString name="ntilde">
          6 41 callsubr
          43 57 callsubr
          -492 vlineto
          -7 -80 callgsubr
          vhcurveto
          63 655 rmoveto
          153 callsubr
          -52 callgsubr
          endchar
        </CharString>
        <CharString name="numbersign">
          182 410 201 rmoveto
          -210 hlineto
          69 241 rlineto
          210 hlineto
          37 28 rmoveto
          293 callsubr
          -210 hlineto
          293 callsubr
          -108 -93 callsubr
          100 hlineto
          -69 -241 rlineto
          -102 107 callgsubr
          hlineto
          -46 -158 rlineto
          -10 -3 1 -5 7 hhcurveto
          11 hlineto
          7 3 4 7 2 hvcurveto
          47 162 rlineto
          210 hlineto
          -46 -158 rlineto
          -10 -3 1 -5 7 hhcurveto
          11 hlineto
          7 3 4 7 2 hvcurveto
          47 162 rlineto
          108 -103 callgsubr
          -100 hlineto
          69 241 rlineto
          102 190 callsubr
        </CharString>
        <CharString name="o">
          -31 callsubr
          endchar
        </CharString>
        <CharString name="oacute">
          -31 callsubr
          117 703 -72 callsubr
        </CharString>
        <CharString name="obreve">
          -31 callsubr
          -53 694 -59 callgsubr
        </CharString>
        <CharString name="ocircumflex">
          -31 callsubr
          66 694 -73 callgsubr
          endchar
        </CharString>
        <CharString name="odieresis">
          -31 callsubr
          105 583 rmoveto
          -67 callgsubr
        </CharString>
        <CharString name="oe">
          322 204 28 rmoveto
          120 callsubr
          85 121 callgsubr
          143 237 rmoveto
          73 callsubr
          -100 -57 callsubr
          -302 -198 rmoveto
          -42 21 43 -25 55 hhcurveto
          205 hlineto
          1 callsubr
          -88 hlineto
          -55 -43 -25 -42 -21 hvcurveto
          42 -21 -43 25 -55 hhcurveto
          111 callgsubr
          85 hlineto
          55 43 25 42 21 hvcurveto
          endchar
        </CharString>
        <CharString name="ogonek">
          -254 77 -66 rmoveto
          -17 -14 6 -27 354 callgsubr
          17 9 7 -5 3 -24 hvcurveto
          -38 hlineto
          72 94 rlineto
          -28 hlineto
          endchar
        </CharString>
        <CharString name="ogonek.uc">
          -254 77 -66 rmoveto
          -17 -14 6 -18 354 callgsubr
          8 9 7 -5 3 -24 hvcurveto
          -38 hlineto
          72 94 rlineto
          -28 hlineto
          endchar
        </CharString>
        <CharString name="ograve">
          -31 callsubr
          -16 694 -30 callgsubr
        </CharString>
        <CharString name="ohungarumlaut">
          -31 callsubr
          175 703 -6 callgsubr
        </CharString>
        <CharString name="omacron">
          -31 callsubr
          144 627 rmoveto
          -105 callgsubr
          -204 -4 callgsubr
          endchar
        </CharString>
        <CharString name="one">
          -185 192 200 callgsubr
        </CharString>
        <CharString name="oslash">
          24 407 373 80 callsubr
        </CharString>
        <CharString name="oslashacute">
          24 269 574 rmoveto
          5 5 3 5 4 hvcurveto
          92 112 rlineto
          5 4 -3 4 -5 hhcurveto
          -30 hlineto
          -7 -5 -3 -6 -3 hvcurveto
          -68 -111 rlineto
          -5 -3 1 -4 5 hhcurveto
          146 -201 80 callsubr
        </CharString>
        <CharString name="otilde">
          -31 callsubr
          -61 655 rmoveto
          153 callsubr
          -52 callgsubr
          endchar
        </CharString>
        <CharString name="p">
          1 222 28 rmoveto
          -65 -47 35 69 hvcurveto
          246 vlineto
          69 47 35 65 vhcurveto
          72 121 callgsubr
          -192 -181 196 callgsubr
          196 4 vlineto
          264 callsubr
          43 57 callsubr
          -645 vlineto
          -98 callsubr
          endchar
        </CharString>
        <CharString name="paragraph">
          7 192 119 callgsubr
          596 vlineto
          5 3 3 6 vhcurveto
          166 hlineto
          7 2 -3 -5 hvcurveto
          -596 vlineto
          -91 callsubr
          626 -104 callsubr
          -231 hlineto
          -81 -43 -33 -83 hvcurveto
          -88 vlineto
          -82 42 -33 78 -1 vhcurveto
          -314 vlineto
          -98 callsubr
          endchar
        </CharString>
        <CharString name="parenleft">
          -220 207 635 rmoveto
          -102 callgsubr
          -4 151 callsubr
          -473 -39 callgsubr
          4 -103 callgsubr
          -4 -61 callsubr
          471 -49 callgsubr
          4 hlineto
          -97 callsubr
          endchar
        </CharString>
        <CharString name="parenright">
          -220 60 -94 rmoveto
          -100 callgsubr
          4 134 callgsubr
          473 vlineto
          83 -53 53 -81 313 callsubr
          67 37 -41 -68 hvcurveto
          -471 -27 callgsubr
          -4 318 callgsubr
        </CharString>
        <CharString name="partialdiff">
          -29 133 618 rmoveto
          139 106 -59 -201 hvcurveto
          252 callsubr
          238 -140 53 -135 -94 callgsubr
          vhcurveto
          -14 -103 callsubr
          133 -236 rmoveto
          357 callsubr
          -141 vlineto
          301 callsubr
          endchar
        </CharString>
        <CharString name="percent">
          214 506 629 rmoveto
          9 4 -1 5 -7 hhcurveto
          -10 hlineto
          -7 -2 -2 -9 -4 hvcurveto
          -275 -620 rlineto
          -9 -4 308 callsubr
          6 3 2 9 4 hvcurveto
          -65 637 115 callsubr
          362 -327 115 callsubr
          endchar
        </CharString>
        <CharString name="period">
          -310 112 128 27 callsubr
          endchar
        </CharString>
        <CharString name="periodcentered">
          -290 122 263 callsubr
          endchar
        </CharString>
        <CharString name="perthousand">
          522 857 293 115 callsubr
          -312 hmoveto
          67 19 -26 -68 hvcurveto
          -48 vlineto
          -68 -19 -27 -67 vhcurveto
          -16 hlineto
          -67 -20 27 68 hvcurveto
          48 vlineto
          68 20 26 67 vhcurveto
          28 vmoveto
          -81 -36 -38 -83 hvcurveto
          -50 vlineto
          -83 36 -39 81 vhcurveto
          16 hlineto
          81 35 39 83 hvcurveto
          50 vlineto
          83 -35 38 -81 vhcurveto
          -362 327 rmoveto
          67 19 -26 -68 hvcurveto
          -48 vlineto
          -68 -19 -27 -67 vhcurveto
          -16 hlineto
          -67 -20 27 68 hvcurveto
          48 vlineto
          68 20 26 67 vhcurveto
          340 9 rmoveto
          9 4 -3 5 -6 hhcurveto
          -9 hlineto
          -7 -4 -4 -7 -3 hvcurveto
          -275 -620 rlineto
          -9 -4 308 callsubr
          6 4 4 7 3 hvcurveto
          -65 637 rmoveto
          -81 -36 -38 -83 hvcurveto
          -50 vlineto
          -83 36 -39 81 vhcurveto
          16 hlineto
          81 35 39 83 hvcurveto
          50 vlineto
          83 -35 38 -81 vhcurveto
          endchar
        </CharString>
        <CharString name="plus">
          15 271 335 rmoveto
          163 -96 callgsubr
          -163 -162 228 callgsubr
          162 324 callsubr
          163 162 vlineto
          -104 callgsubr
          endchar
        </CharString>
        <CharString name="plusminus">
          15 79 163 rmoveto
          -99 callsubr
          354 -103 callgsubr
          -162 215 rmoveto
          120 -96 callgsubr
          -120 -162 228 callgsubr
          162 -120 hlineto
          221 callgsubr
          162 vlineto
          -104 callgsubr
          endchar
        </CharString>
        <CharString name="q">
          1 274 hmoveto
          35 44 0 54 31 hvcurveto
          4 323 callsubr
          645 -53 callgsubr
          -206 -18 callsubr
          184 137 rmoveto
          -68 -47 -41 -67 vhcurveto
          -70 48 callsubr
          175 -99 callgsubr
          endchar
        </CharString>
        <CharString name="question">
          -22 263 251 rmoveto
          41 1 17 43 36 vhcurveto
          40 34 rlineto
          31 26 17 26 43 vvcurveto
          35 169 callsubr
          -47 hlineto
          -81 -53 -50 -83 322 callsubr
          47 -27 callsubr
          47 hlineto
          112 callgsubr
          -33 vlineto
          -33 -13 -22 -28 -24 vhcurveto
          -31 -28 rlineto
          -48 -42 -12 -20 -59 vvcurveto
          -35 vlineto
          -91 callsubr
          3 -84 27 callsubr
          endchar
        </CharString>
        <CharString name="questiondown">
          -22 212 391 rmoveto
          -41 -1 -17 -43 -36 vhcurveto
          -40 -34 rlineto
          -31 -26 -17 -26 -43 vvcurveto
          -35 vlineto
          6 callsubr
          47 hlineto
          81 53 50 210 callgsubr
          -37 -38 -67 vhcurveto
          -47 -44 callsubr
          33 vlineto
          33 13 22 28 24 vhcurveto
          31 28 rlineto
          48 42 12 20 59 vvcurveto
          35 -96 callgsubr
          -3 84 rmoveto
          74 callgsubr
          119 vlineto
          -7 callgsubr
          endchar
        </CharString>
        <CharString name="quotedbl">
          -173 254 633 220 callsubr
          4 3 7 hvcurveto
          -142 182 220 callsubr
          4 3 7 hvcurveto
          endchar
        </CharString>
        <CharString name="quotedblbase">
          -163 259 126 -1 callsubr
          -147 79 -1 callsubr
          endchar
        </CharString>
        <CharString name="quotedblleft">
          -173 70 414 170 callsubr
          147 -79 170 callsubr
          endchar
        </CharString>
        <CharString name="quotedblright">
          -173 254 634 -1 callsubr
          -147 79 -1 callsubr
          endchar
        </CharString>
        <CharString name="quoteleft">
          -320 70 414 170 callsubr
          endchar
        </CharString>
        <CharString name="quoteright">
          -320 107 634 -1 callsubr
          endchar
        </CharString>
        <CharString name="quotesinglbase">
          -310 112 126 -1 callsubr
          endchar
        </CharString>
        <CharString name="quotesingle">
          -312 110 633 220 callsubr
          2 3 7 2 hvcurveto
          endchar
        </CharString>
        <CharString name="r">
          -194 277 callsubr
          354 vlineto
          74 46 45 67 vhcurveto
          41 -103 callgsubr
          -40 hlineto
          -66 -33 -34 -20 -11 hvcurveto
          -4 45 49 callsubr
          endchar
        </CharString>
        <CharString name="racute">
          -194 277 callsubr
          354 vlineto
          74 46 45 67 vhcurveto
          41 -103 callgsubr
          -40 hlineto
          -66 -33 -34 -20 -11 hvcurveto
          -4 45 49 callsubr
          127 703 -72 callsubr
        </CharString>
        <CharString name="rcaron">
          -194 277 callsubr
          354 vlineto
          74 46 45 67 vhcurveto
          41 -103 callgsubr
          -40 hlineto
          -66 -33 -34 -20 -11 hvcurveto
          -4 45 49 callsubr
          77 574 -66 callsubr
          endchar
        </CharString>
        <CharString name="registered">
          -67 254 409 rmoveto
          64 42 42 65 hvcurveto
          80 vlineto
          65 -42 42 -64 vhcurveto
          -79 hlineto
          -64 -41 -42 -65 hvcurveto
          -80 vlineto
          -65 41 -42 64 vhcurveto
          22 vmoveto
          -52 -30 33 53 hvcurveto
          78 vlineto
          53 30 33 52 vhcurveto
          79 hlineto
          53 29 -33 -53 hvcurveto
          -78 vlineto
          -53 -29 -33 -53 vhcurveto
          -91 46 rmoveto
          -98 callsubr
          7 hlineto
          -84 callgsubr
          58 42 vlineto
          28 -61 rlineto
          -5 2 2 -1 5 hhcurveto
          10 hlineto
          5 1 3 6 -3 hvcurveto
          -28 60 rlineto
          17 6 9 14 22 vvcurveto
          23 vlineto
          27 -16 17 -27 vhcurveto
          -62 -89 callgsubr
          70 -12 rmoveto
          13 7 -8 -12 hvcurveto
          -28 vlineto
          -12 -7 -9 -13 vhcurveto
          -47 69 hlineto
          endchar
        </CharString>
        <CharString name="ring">
          -193 51 105 callsubr
          endchar
        </CharString>
        <CharString name="ring.uc">
          -193 146 715 112 callsubr
        </CharString>
        <CharString name="s">
          -68 238 hmoveto
          87 44 31 89 62 -7 56 -78 22 hvcurveto
          -11 callgsubr
          endchar
        </CharString>
        <CharString name="sacute">
          -74 238 hmoveto
          87 44 31 89 62 -7 56 -78 22 hvcurveto
          -11 callgsubr
          197 703 -72 callsubr
        </CharString>
        <CharString name="scaron">
          -74 238 hmoveto
          87 44 31 89 62 -7 56 -78 22 hvcurveto
          -11 callgsubr
          137 574 -66 callsubr
          endchar
        </CharString>
        <CharString name="scircumflex">
          -74 238 hmoveto
          87 44 31 89 62 -7 56 -78 22 hvcurveto
          -11 callgsubr
          166 694 -73 callgsubr
          endchar
        </CharString>
        <CharString name="section">
          -53 253 hmoveto
          108 23 61 72 hvcurveto
          170 vlineto
          72 -43 27 -62 11 vhcurveto
          -111 19 rlineto
          -62 11 -16 27 50 vvcurveto
          62 34 33 57 vhcurveto
          161 -103 callgsubr
          -161 hlineto
          -98 -23 -60 -62 hvcurveto
          -173 vlineto
          -73 47 -32 56 -11 vhcurveto
          111 -19 rlineto
          50 -9 30 -19 -54 vvcurveto
          -54 -13 -49 -88 vhcurveto
          -180 -93 callsubr
          281 209 rmoveto
          -18 16 -26 10 -31 5 -111 19 rcurveline
          -57 10 -21 34 45 vvcurveto
          92 vlineto
          19 -19 26 -10 28 -6 111 -19 rcurveline
          50 -9 30 -19 -55 vvcurveto
          endchar
        </CharString>
        <CharString name="semicolon">
          -310 112 501 27 callsubr
          -254 vmoveto
          -7 callgsubr
          -223 -24 callsubr
          endchar
        </CharString>
        <CharString name="seven">
          185 callsubr
        </CharString>
        <CharString name="six">
          -7 286 hmoveto
          -14 callsubr
          105 6 callgsubr
          -196 129 hlineto
          68 37 41 67 vhcurveto
          186 -103 callgsubr
          -186 151 callsubr
          -371 -39 callgsubr
          28 vmoveto
          -51 callsubr
          212 196 vlineto
          22 callsubr
          -103 -27 callgsubr
          endchar
        </CharString>
        <CharString name="slash">
          -104 322 629 rmoveto
          8 3 -2 6 -7 306 callsubr
          -3 -3 -8 -3 hvcurveto
          -218 -620 rlineto
          -8 -3 5 -4 6 hhcurveto
          13 hlineto
          6 4 3 8 3 hvcurveto
          endchar
        </CharString>
        <CharString name="space">
          -217 endchar
        </CharString>
        <CharString name="sterling">
          23 116 28 rmoveto
          4 vlineto
          6 22 13 57 hvcurveto
          178 176 vlineto
          -104 callgsubr
          -176 201 232 callsubr
          -202 -65 228 callgsubr
          65 -180 hlineto
          -40 -27 -32 -26 vhcurveto
          -12 -93 callsubr
          392 190 callsubr
        </CharString>
        <CharString name="t">
          -151 105 482 175 callgsubr
          -341 vlineto
          -83 59 33 callsubr
          38 -103 callgsubr
          -38 hlineto
          -67 -43 38 68 hvcurveto
          340 178 callsubr
          endchar
        </CharString>
        <CharString name="tbar">
          -151 292 hmoveto
          -104 callgsubr
          -38 hlineto
          -67 -43 38 68 hvcurveto
          308 callgsubr
          129 -103 callgsubr
          -129 hlineto
          -7 callsubr
          156 178 callsubr
          66 hlineto
          7 2 -3 -5 hvcurveto
          -156 274 callsubr
          -141 vlineto
          -83 59 33 callsubr
          endchar
        </CharString>
        <CharString name="tcaron">
          -120 105 482 175 callgsubr
          -341 vlineto
          -83 59 33 callsubr
          38 -103 callgsubr
          -38 hlineto
          -67 -43 38 68 hvcurveto
          340 178 callsubr
          328 152 -1 callsubr
          endchar
        </CharString>
        <CharString name="thorn">
          6 119 52 rmoveto
          264 callsubr
          236 57 callsubr
          -818 vlineto
          -91 callsubr
          176 vlineto
          112 -24 rmoveto
          -65 -47 35 69 hvcurveto
          246 vlineto
          69 47 35 65 vhcurveto
          72 121 callgsubr
          endchar
        </CharString>
        <CharString name="three">
          -4 227 88 callgsubr
        </CharString>
        <CharString name="tilde">
          -123 70 655 rmoveto
          153 callsubr
          -52 callgsubr
          endchar
        </CharString>
        <CharString name="tilde.uc">
          -123 185 765 rmoveto
          -52 callgsubr
          -39 vlineto
          153 callsubr
          endchar
        </CharString>
        <CharString name="trademark">
          95 149 407 rmoveto
          -98 callsubr
          9 hlineto
          -84 callgsubr
          212 69 vlineto
          -97 callsubr
          8 -104 callsubr
          -164 hlineto
          -100 callsubr
          -8 -103 callsubr
          70 hlineto
          265 -130 rmoveto
          -4 hlineto
          -80 148 rlineto
          3 -2 -3 3 -5 hhcurveto
          -10 hlineto
          -100 callsubr
          -228 vlineto
          -98 callsubr
          9 hlineto
          -84 callgsubr
          186 4 vlineto
          67 -128 rlineto
          -6 3 2 -2 6 hhcurveto
          9 hlineto
          4 3 3 5 2 hvcurveto
          67 128 rlineto
          4 -186 hlineto
          -98 callsubr
          9 hlineto
          -84 callgsubr
          228 -104 callsubr
          -11 hlineto
          -5 -2 -2 -4 -2 hvcurveto
          endchar
        </CharString>
        <CharString name="two">
          -23 64 116 callsubr
        </CharString>
        <CharString name="u">
          6 283 hmoveto
          -50 callgsubr
          endchar
        </CharString>
        <CharString name="uacute">
          6 283 hmoveto
          -50 callgsubr
          114 703 -72 callsubr
        </CharString>
        <CharString name="ubreve">
          6 283 hmoveto
          -50 callgsubr
          -55 684 -59 callgsubr
        </CharString>
        <CharString name="ucircumflex">
          6 283 hmoveto
          -50 callgsubr
          64 694 -73 callgsubr
          endchar
        </CharString>
        <CharString name="udieresis">
          6 283 hmoveto
          -50 callgsubr
          103 583 rmoveto
          -67 callgsubr
        </CharString>
        <CharString name="ugrave">
          6 283 hmoveto
          -50 callgsubr
          -16 694 -30 callgsubr
        </CharString>
        <CharString name="uhungarumlaut">
          6 283 hmoveto
          -50 callgsubr
          165 703 -6 callgsubr
        </CharString>
        <CharString name="umacron">
          6 283 hmoveto
          -50 callgsubr
          142 627 rmoveto
          -105 callgsubr
          -204 -4 callgsubr
          endchar
        </CharString>
        <CharString name="underscore">
          -125 363 -96 13 callsubr
          -354 83 callsubr
        </CharString>
        <CharString name="uni00A0">
          -217 endchar
        </CharString>
        <CharString name="uni0122">
          -20 callsubr
          92 -41 -10 callgsubr
          -191 -24 callsubr
          endchar
        </CharString>
        <CharString name="uni0123">
          6 252 583 rmoveto
          74 callgsubr
          191 vlineto
          5 -3 1 -2 -3 -2 -2 -4 -1 vhcurveto
          -18 -89 rlineto
          -5 -24 -3 -14 -17 vvcurveto
          141 -468 -10 callsubr
          endchar
        </CharString>
        <CharString name="uni0136">
          129 callgsubr
          212 -41 -10 callgsubr
          -191 -24 callsubr
          endchar
        </CharString>
        <CharString name="uni0137">
          -77 253 -41 -10 callgsubr
          -191 -24 callsubr
          -151 88 267 callsubr
          104 270 rmoveto
          -2 -3 0 -6 2 -3 175 -249 rcurveline
          -8 6 6 -1 6 hhcurveto
          17 hlineto
          4 4 3 6 -5 hvcurveto
          -180 253 rlineto
          4 vlineto
          159 235 rlineto
          5 4 -2 4 -6 hhcurveto
          -14 hlineto
          -8 -4 -1 -6 -4 hvcurveto
          endchar
        </CharString>
        <CharString name="uni013B">
          -45 413 hmoveto
          63 callsubr
          177 -41 -10 callgsubr
          -191 -24 callsubr
          endchar
        </CharString>
        <CharString name="uni013C">
          -296 195 callsubr
          26 -41 -10 callgsubr
          -191 -24 callsubr
          endchar
        </CharString>
        <CharString name="uni0145">
          81 112 hmoveto
          37 callsubr
          210 -41 -10 callgsubr
          -191 -24 callsubr
          endchar
        </CharString>
        <CharString name="uni0146">
          3 41 callsubr
          43 57 callsubr
          -492 vlineto
          -7 -80 callgsubr
          vhcurveto
          185 -41 -10 callgsubr
          -191 -24 callsubr
          endchar
        </CharString>
        <CharString name="uni0156">
          2 callsubr
          182 -41 -10 callgsubr
          -191 -24 callsubr
          endchar
        </CharString>
        <CharString name="uni0157">
          -194 277 callsubr
          354 vlineto
          74 46 45 67 vhcurveto
          41 -103 callgsubr
          -40 hlineto
          -66 -33 -34 -20 -11 hvcurveto
          -4 45 49 callsubr
          26 -41 -10 callgsubr
          -191 -24 callsubr
          endchar
        </CharString>
        <CharString name="uni015E">
          71 470 468 196 callgsubr
          30 6 callgsubr
          -120 151 callsubr
          -60 vlineto
          -180 358 91 -171 vvcurveto
          -50 -27 callgsubr
          -120 125 callgsubr
          65 hlineto
          -40 -45 rlineto
          182 callgsubr
          -25 -15 -9 71 callsubr
          46 50 rlineto
          21 134 callgsubr
          53 vlineto
          196 -358 -90 153 vvcurveto
          58 -49 callgsubr
          120 7 callgsubr
          -29 vlineto
          -98 callsubr
          endchar
        </CharString>
        <CharString name="uni015F">
          -74 252 hmoveto
          78 4 39 32 84 vvcurveto
          62 -7 56 -78 22 vhcurveto
          -11 callgsubr
          149 hlineto
          -40 -45 rlineto
          182 callgsubr
          -23 -15 -11 71 callsubr
          endchar
        </CharString>
        <CharString name="uni0162">
          -83 214 119 callgsubr
          598 vlineto
          5 2 3 7 vhcurveto
          154 -103 callgsubr
          -356 -93 callsubr
          154 -99 callgsubr
          -598 vlineto
          -98 callsubr
          26 -41 -10 callgsubr
          -191 -24 callsubr
          endchar
        </CharString>
        <CharString name="uni0163">
          -151 105 482 175 callgsubr
          -341 vlineto
          -83 59 33 callsubr
          38 -103 callgsubr
          -38 hlineto
          -67 -43 38 68 hvcurveto
          340 178 callsubr
          188 -523 -10 callgsubr
          -191 -24 callsubr
          endchar
        </CharString>
        <CharString name="uni0218">
          -21 callsubr
          225 -217 -10 callgsubr
          -191 -24 callsubr
          endchar
        </CharString>
        <CharString name="uni0219">
          -74 238 hmoveto
          87 44 31 89 62 -7 56 -78 22 hvcurveto
          -11 callgsubr
          177 -41 -10 callgsubr
          -191 -24 callsubr
          endchar
        </CharString>
        <CharString name="uni02C9">
          -135 283 627 rmoveto
          -105 callgsubr
          -204 -4 callgsubr
          endchar
        </CharString>
        <CharString name="uni0901">
          -497 -84 684 -28 callgsubr
          49 156 rmoveto
          -22 callsubr
          20 hlineto
          -86 callgsubr
          hvcurveto
          endchar
        </CharString>
        <CharString name="uni0902">
          -497 -100 741 rmoveto
          -22 callsubr
          20 hlineto
          -86 callgsubr
          hvcurveto
          endchar
        </CharString>
        <CharString name="uni0902.aMatraI">
          -497 80 741 rmoveto
          -22 callsubr
          20 hlineto
          -86 callgsubr
          hvcurveto
          endchar
        </CharString>
        <CharString name="uni0903">
          -252 141 391 rmoveto
          -22 callsubr
          20 hlineto
          -86 callgsubr
          hvcurveto
          -307 vmoveto
          -22 callsubr
          20 hlineto
          -86 callgsubr
          hvcurveto
          endchar
        </CharString>
        <CharString name="uni0905">
          98 481 623 rmoveto
          -25 callgsubr
          92 hlineto
          -97 callsubr
          9 vlineto
          -87 callsubr
          vhcurveto
          endchar
        </CharString>
        <CharString name="uni0906">
          326 479 623 rmoveto
          -25 callgsubr
          182 -99 callgsubr
          -581 vlineto
          -7 3 -2 5 vhcurveto
          14 hlineto
          -107 callgsubr
          endchar
        </CharString>
        <CharString name="uni0907">
          -16 289 246 rmoveto
          29 callsubr
          -483 hlineto
          143 callsubr
          endchar
        </CharString>
        <CharString name="uni0908">
          -16 293 739 rmoveto
          126 callsubr
          57 -103 callgsubr
          -56 231 callsubr
          -58 vlineto
          -33 5 -12 15 -9 vhcurveto
          -4 -284 vlineto
          143 callsubr
          87 hlineto
          29 callsubr
          -127 hlineto
          -51 -11 10 42 hvcurveto
          endchar
        </CharString>
        <CharString name="uni09080902">
          -16 293 739 rmoveto
          126 callsubr
          57 -103 callgsubr
          -56 231 callsubr
          -58 vlineto
          -33 5 -12 15 -9 vhcurveto
          -4 -284 vlineto
          143 callsubr
          87 hlineto
          29 callsubr
          -127 hlineto
          -51 -11 10 42 hvcurveto
          121 46 rmoveto
          -22 callsubr
          20 hlineto
          -86 callgsubr
          hvcurveto
          endchar
        </CharString>
        <CharString name="uni0909">
          -23 332 329 rmoveto
          321 callsubr
          131 vlineto
          -105 callgsubr
          -476 -4 callgsubr
          266 hlineto
          64 35 -43 -66 hvcurveto
          -44 12 callsubr
          -62 -93 callsubr
          67 hlineto
          112 callgsubr
          -68 -27 callgsubr
          -77 -61 callsubr
          69 -96 callgsubr
          -70 -39 callgsubr
          77 134 callgsubr
          70 vlineto
          55 -22 42 -45 22 vhcurveto
          endchar
        </CharString>
        <CharString name="uni090A">
          165 -76 callsubr
          266 hlineto
          64 35 -43 -66 hvcurveto
          -44 12 callsubr
          -62 -93 callsubr
          67 hlineto
          112 callgsubr
          -68 -27 callgsubr
          -77 -61 callsubr
          69 -96 callgsubr
          -70 -39 callgsubr
          77 134 callgsubr
          70 vlineto
          36 -10 31 -19 23 vhcurveto
          122 hlineto
          112 callgsubr
          -44 12 callsubr
          -15 -93 callsubr
          15 94 callgsubr
          46 169 callsubr
          -158 hlineto
          -2 1 rlineto
          4 vlineto
          321 callsubr
          319 vlineto
          -105 callgsubr
          endchar
        </CharString>
        <CharString name="uni090B">
          246 -76 callsubr
          350 hlineto
          207 callsubr
          -260 -200 57 callgsubr
          235 181 rlineto
          239 callsubr
          209 vlineto
          245 189 rlineto
          -157 vlineto
          -52 callsubr
          -90 -41 -32 -73 vhcurveto
          -32 vlineto
          262 callsubr
          50 312 callsubr
          20 58 hvcurveto
          30 134 callsubr
          31 hlineto
          10 5 4 9 hvcurveto
          194 226 callgsubr
        </CharString>
        <CharString name="uni090C">
          189 -76 callsubr
          548 187 callgsubr
          -4 hlineto
          11 callsubr
          -136 vlineto
          -88 callsubr
          38 25 66 67 37 -28 -78 vhcurveto
          -269 -24 vlineto
          -81 -35 -36 -85 -96 56 -25 78 51 53 19 34 32 hvcurveto
          3 3 3 3 4 vvcurveto
          2 -1 2 -2 2 vhcurveto
          -6 6 rlineto
          2 -2 -2 2 -4 hhcurveto
          -2 -2 -1 -3 -4 hvcurveto
          -26 -29 -36 -21 -52 hhcurveto
          -67 -37 22 71 65 19 28 67 hvcurveto
          45 hlineto
          -97 callsubr
          570 -107 callsubr
          endchar
        </CharString>
        <CharString name="uni090D">
          25 308 732 -28 callgsubr
          -248 -109 97 callsubr
        </CharString>
        <CharString name="uni090E">
          25 461 623 197 callgsubr
          -414 98 callgsubr
        </CharString>
        <CharString name="uni090F">
          30 -1 623 97 callsubr
        </CharString>
        <CharString name="uni0910">
          30 468 177 callsubr
          40 -58 41 -54 21 -26 rlinecurve
          -429 98 callgsubr
        </CharString>
        <CharString name="uni0911">
          328 629 684 -28 callgsubr
          -87 -61 rmoveto
          -25 callgsubr
          182 -99 callgsubr
          -581 vlineto
          -7 3 -2 5 vhcurveto
          14 hlineto
          -107 callgsubr
          endchar
        </CharString>
        <CharString name="uni0912">
          328 734 623 197 callgsubr
          -205 hlineto
          -25 callgsubr
          182 -99 callgsubr
          -581 vlineto
          -7 3 -2 5 vhcurveto
          14 hlineto
          -107 callgsubr
          endchar
        </CharString>
        <CharString name="uni0913">
          328 741 246 callsubr
          21 -27 24 -28 rlinecurve
          -4 -214 vlineto
          -25 callgsubr
          182 -99 callgsubr
          -581 vlineto
          -7 3 -2 5 vhcurveto
          14 hlineto
          -107 callgsubr
          endchar
        </CharString>
        <CharString name="uni0914">
          328 731 623 rmoveto
          202 callgsubr
          -63 vlineto
          -83 10 -61 0 vhcurveto
          -3 -1 -139 208 rlineto
          100 callgsubr
          -14 225 callgsubr
          -2 1 -2 1 -2 hvcurveto
          63 -93 rlineto
          60 -88 43 -46 0 vvcurveto
          -4 -214 vlineto
          -25 callgsubr
          182 -99 callgsubr
          -581 vlineto
          -7 3 -2 5 vhcurveto
          14 hlineto
          -107 callgsubr
          endchar
        </CharString>
        <CharString name="uni0915">
          227 377 288 callsubr
          -726 -4 callgsubr
          339 -99 callgsubr
          -364 vlineto
          -101 callsubr
          -81 -53 -50 -83 hvcurveto
          -123 vlineto
          6 callsubr
          -3 callgsubr
          -90 callsubr
          hvcurveto
          348 vlineto
          -81 callsubr
          hlineto
          endchar
        </CharString>
        <CharString name="uni0915093C">
          227 377 288 callsubr
          -726 -4 callgsubr
          339 -99 callgsubr
          -364 vlineto
          -101 callsubr
          -81 -53 -50 -83 hvcurveto
          -123 vlineto
          6 callsubr
          -3 callgsubr
          -90 callsubr
          hvcurveto
          348 vlineto
          -81 callsubr
          hlineto
          -189 -466 rmoveto
          25 vlineto
          7 -3 2 -5 vhcurveto
          -20 hlineto
          -74 callgsubr
          endchar
        </CharString>
        <CharString name="uni0915093C094D">
          21 520 458 rmoveto
          45 31 -16 -33 16 hvcurveto
          -6 3 1 -6 6 349 callsubr
          1 2 hvcurveto
          8 5 rlineto
          4 2 1 3 3 vvcurveto
          4 -3 5 -2 4 vhcurveto
          39 -19 -45 22 43 callgsubr
          249 -106 callgsubr
          -636 -4 callgsubr
          339 -99 callgsubr
          -364 vlineto
          -101 callsubr
          -81 -53 -50 -83 hvcurveto
          -123 vlineto
          6 callsubr
          -3 callgsubr
          -90 callsubr
          hvcurveto
          348 vlineto
          20 callsubr
          -326 -484 rmoveto
          25 vlineto
          7 -3 2 -5 vhcurveto
          -20 hlineto
          -74 callgsubr
          endchar
        </CharString>
        <CharString name="uni0915093C094D0915093C">
          777 149 4 rmoveto
          -74 callgsubr
          92 callsubr
          530 hmoveto
          -74 callgsubr
          92 callsubr
          178 222 rmoveto
          -101 callsubr
          -53 -41 -21 -39 -22 hvcurveto
          45 -27 -45 15 -46 -5 callsubr
          502 -99 callgsubr
          -898 -60 callsubr
          339 -99 callgsubr
          -364 vlineto
          -101 callsubr
          -81 -53 -50 -83 hvcurveto
          -123 vlineto
          6 callsubr
          -3 callgsubr
          -90 callsubr
          hvcurveto
          348 vlineto
          20 callsubr
          39 hlineto
          45 36 -18 -51 23 hvcurveto
          -3 -11 -1 -12 -13 180 callgsubr
          348 vlineto
          -37 callsubr
          endchar
        </CharString>
        <CharString name="uni0915093C094D0924">
          515 149 4 rmoveto
          -74 callgsubr
          92 callsubr
          713 413 93 callsubr
          -156 hlineto
          -24 -22 -4 -9 -18 hvcurveto
          -1 3 -2 3 -1 2 rrcurveto
          62 -25 -51 20 43 callgsubr
          487 -99 callgsubr
          -883 -60 callsubr
          339 -99 callgsubr
          -364 vlineto
          -101 callsubr
          -81 -53 -50 -83 hvcurveto
          -123 vlineto
          6 callsubr
          -3 callgsubr
          -90 callsubr
          hvcurveto
          348 vlineto
          20 callsubr
          39 hlineto
          45 36 -18 -52 23 hvcurveto
          2 -3 1 -3 1 -2 rrcurveto
          -23 -21 -13 -33 -47 vvcurveto
          -149 vlineto
          -80 callsubr
          149 vlineto
          77 callgsubr
          -364 vlineto
          -7 3 -2 5 vhcurveto
          14 hlineto
          -107 callgsubr
          endchar
        </CharString>
        <CharString name="uni0915093C094D092B">
          742 149 4 rmoveto
          -74 callgsubr
          92 callsubr
          694 317 8 callgsubr
          -382 195 callgsubr
          -593 168 -91 callgsubr
          339 -99 callgsubr
          -364 vlineto
          -101 callsubr
          -81 -53 -50 -83 hvcurveto
          -123 vlineto
          6 callsubr
          -3 callgsubr
          14 317 callgsubr
          -102 hlineto
          6 callsubr
          33 hlineto
          47 35 14 34 18 hvcurveto
          4 -231 hlineto
          -98 callsubr
          13 hlineto
          -84 callgsubr
          348 vlineto
          -37 callsubr
          endchar
        </CharString>
        <CharString name="uni0915093C094D092B093C">
          742 149 4 rmoveto
          -74 callgsubr
          92 callsubr
          490 hmoveto
          -74 callgsubr
          92 callsubr
          184 317 8 callgsubr
          -382 195 callgsubr
          -593 168 -91 callgsubr
          339 -99 callgsubr
          -364 vlineto
          -101 callsubr
          -81 -53 -50 -83 hvcurveto
          -123 vlineto
          6 callsubr
          -3 callgsubr
          14 317 callgsubr
          -102 hlineto
          6 callsubr
          33 hlineto
          47 35 14 34 18 hvcurveto
          4 -231 hlineto
          -98 callsubr
          13 hlineto
          -84 callgsubr
          348 vlineto
          -37 callsubr
          endchar
        </CharString>
        <CharString name="uni0915093C094D092C">
          542 149 4 rmoveto
          -74 callgsubr
          92 callsubr
          592 116 60 callgsubr
          231 -243 rlineto
          -32 -16 -33 -18 -45 hhcurveto
          -324 366 rmoveto
          -62 callsubr
          514 208 callgsubr
          0 -7 -1 -6 vhcurveto
          -224 236 227 callgsubr
          -57 -44 -25 -44 -20 hvcurveto
          47 -27 -46 16 -47 hhcurveto
          -521 137 -91 callgsubr
          339 -99 callgsubr
          -364 vlineto
          -101 callsubr
          -81 -53 -50 -83 hvcurveto
          -123 vlineto
          6 callsubr
          -3 callgsubr
          -90 callsubr
          hvcurveto
          348 vlineto
          20 callsubr
          39 hlineto
          45 36 -18 -52 23 hvcurveto
          2 -3 1 -3 1 -3 rrcurveto
          -1 -6 0 -7 -7 vvcurveto
          131 callsubr
          44 -45 callsubr
          -131 hlineto
          -7 3 -2 5 vhcurveto
          14 hlineto
          -107 callgsubr
          endchar
        </CharString>
        <CharString name="uni0915093C094D092E">
          493 149 4 rmoveto
          -74 callgsubr
          92 callsubr
          691 343 -34 callsubr
          -379 69 callgsubr
          194 -99 callgsubr
          -135 vlineto
          -590 168 -91 callgsubr
          339 -99 callgsubr
          -364 vlineto
          -101 callsubr
          -81 -53 -50 -83 hvcurveto
          -123 vlineto
          6 callsubr
          -3 callgsubr
          -90 callsubr
          hvcurveto
          317 345 callgsubr
          -234 hlineto
          -91 callsubr
          111 -71 callsubr
          -295 vlineto
          -7 3 -2 5 vhcurveto
          14 hlineto
          -107 callgsubr
          endchar
        </CharString>
        <CharString name="uni0915093C094D0930">
          227 258 -56 rmoveto
          -64 callgsubr
          -20 hlineto
          -74 callgsubr
          9 175 rmoveto
          0 -21 -15 -45 -42 vhcurveto
          -67 -62 207 callgsubr
          -3 -3 vvcurveto
          -3 3 -3 5 vhcurveto
          11 146 callsubr
          45 42 34 31 25 24 rrcurveto
          67 63 6 6 0 vvcurveto
          4 -126 hlineto
          -91 callsubr
          348 vlineto
          -37 callsubr
          -726 -4 callgsubr
          339 -99 callgsubr
          -364 vlineto
          -101 callsubr
          -81 -53 -50 -83 hvcurveto
          326 callgsubr
          hlineto
          endchar
        </CharString>
        <CharString name="uni0915093C094D0930094D">
          21 250 264 callgsubr
          -251 704 -91 callgsubr
          339 -99 callgsubr
          -364 vlineto
          -101 callsubr
          -81 -53 -50 -83 hvcurveto
          326 callgsubr
          -4 hlineto
          0 -21 -15 -45 -42 vhcurveto
          -67 -62 207 callgsubr
          -3 -3 vvcurveto
          -3 3 -3 5 vhcurveto
          11 146 callsubr
          43 40 32 30 25 23 rrcurveto
          71 66 6 7 0 vvcurveto
          4 -126 hlineto
          -91 callsubr
          348 vlineto
          20 callsubr
          39 hlineto
          45 31 -16 -33 16 hvcurveto
          -6 3 1 -6 6 349 callsubr
          1 2 hvcurveto
          8 5 rlineto
          4 2 1 3 3 vvcurveto
          4 -3 5 -2 4 vhcurveto
          39 -19 -45 22 43 callgsubr
          249 -106 callgsubr
          endchar
        </CharString>
        <CharString name="uni0915094D">
          21 520 458 rmoveto
          45 31 -16 -33 16 hvcurveto
          -6 3 1 -6 6 349 callsubr
          1 2 hvcurveto
          8 5 rlineto
          4 2 1 3 3 vvcurveto
          4 -3 5 -2 4 vhcurveto
          39 -19 -45 22 43 callgsubr
          249 -106 callgsubr
          -636 -4 callgsubr
          339 -99 callgsubr
          -364 vlineto
          -101 callsubr
          -81 -53 -50 -83 hvcurveto
          -123 vlineto
          6 callsubr
          -3 callgsubr
          -90 callsubr
          hvcurveto
          348 vlineto
          20 callsubr
          endchar
        </CharString>
        <CharString name="uni0915094D0915">
          762 882 226 rmoveto
          -101 callsubr
          -48 -38 -17 -32 -23 hvcurveto
          32 -22 -41 17 -47 -5 callsubr
          487 -99 callgsubr
          -883 -60 callsubr
          339 -99 callgsubr
          -364 vlineto
          -101 callsubr
          -81 -53 -50 -83 hvcurveto
          -123 vlineto
          6 callsubr
          -3 callgsubr
          -90 callsubr
          hvcurveto
          348 vlineto
          20 callsubr
          39 hlineto
          45 31 -16 -33 16 hvcurveto
          1 -3 rlineto
          -5 -16 -3 -17 -20 180 callgsubr
          348 vlineto
          -37 callsubr
          endchar
        </CharString>
        <CharString name="uni0915094D0916">
          760 787 428 rmoveto
          103 callgsubr
          -60 27 hlineto
          83 -53 51 -81 vhcurveto
          -19 -65 callgsubr
          392 -99 callgsubr
          -788 -60 callsubr
          339 -99 callgsubr
          -364 vlineto
          -101 callsubr
          -81 -53 -50 -83 hvcurveto
          -123 vlineto
          6 callsubr
          -3 callgsubr
          -90 callsubr
          hvcurveto
          348 vlineto
          20 callsubr
          19 hlineto
          112 callgsubr
          -56 vlineto
          17 -21 182 -265 -29 callgsubr
          -192 281 rlineto
          50 -13 callsubr
          292 -99 callgsubr
          -307 12 callsubr
          -4 -48 callgsubr
          33 callsubr
          4 hlineto
          49 33 19 31 18 hvcurveto
          4 -190 hlineto
          -7 3 -2 5 vhcurveto
          14 hlineto
          -107 callgsubr
          endchar
        </CharString>
        <CharString name="uni0915094D091A">
          589 956 241 rmoveto
          -1 callgsubr
          -79 -44 callsubr
          45 135 callgsubr
          -244 hlineto
          38 -19 -36 23 -52 hhcurveto
          -4 -65 callgsubr
          561 -99 callgsubr
          -957 -60 callsubr
          339 -99 callgsubr
          -364 vlineto
          -101 callsubr
          -81 -53 -50 -83 hvcurveto
          -123 vlineto
          6 callsubr
          -3 callgsubr
          -90 callsubr
          hvcurveto
          348 vlineto
          20 callsubr
          4 hlineto
          45 24 -20 -38 17 hvcurveto
          0 vlineto
          -2 1 3 -1 4 hhcurveto
          107 -4 hlineto
          218 callsubr
          -47 vlineto
          6 callsubr
          79 -45 callsubr
          -151 hlineto
          -7 3 -2 5 vhcurveto
          14 hlineto
          -107 callgsubr
          endchar
        </CharString>
        <CharString name="uni0915094D091C">
          564 -76 callsubr
          339 -99 callgsubr
          -364 vlineto
          -101 callsubr
          -81 -53 -50 -83 hvcurveto
          -123 vlineto
          6 callsubr
          -3 callgsubr
          -90 callsubr
          hvcurveto
          297 vlineto
          20 callsubr
          71 -103 callgsubr
          -71 183 callsubr
          204 24 callsubr
          536 335 callsubr
          -292 -93 callsubr
          37 289 callgsubr
          -107 -93 callsubr
          106 292 callgsubr
          vlineto
          46 -13 35 -30 17 vhcurveto
          4 174 14 callsubr
          -390 vlineto
          -7 3 -2 5 vhcurveto
          14 hlineto
          -107 callgsubr
          endchar
        </CharString>
        <CharString name="uni0915094D091F">
          490 842 448 93 callsubr
          -127 hlineto
          -26 -23 -5 -11 -20 hvcurveto
          1 vlineto
          39 -19 -45 22 43 callgsubr
          447 -99 callgsubr
          -843 -60 callsubr
          339 -99 callgsubr
          -364 vlineto
          -101 callsubr
          -81 -53 -50 -83 hvcurveto
          -123 vlineto
          6 callsubr
          -3 callgsubr
          -90 callsubr
          hvcurveto
          348 vlineto
          20 callsubr
          39 hlineto
          45 31 -16 -33 16 hvcurveto
          1 -2 rlineto
          -26 -24 -15 -35 -44 vvcurveto
          130 callsubr
          90 hlineto
          -66 callgsubr
          endchar
        </CharString>
        <CharString name="uni0915094D0923">
          688 837 104 callgsubr
          -356 69 callgsubr
          197 -99 callgsubr
          -135 vlineto
          -593 168 -91 callgsubr
          339 -99 callgsubr
          -364 vlineto
          -101 callsubr
          -81 -53 -50 -83 hvcurveto
          -123 vlineto
          6 callsubr
          -3 callgsubr
          14 317 callgsubr
          -109 hlineto
          40 callsubr
          175 -99 callgsubr
          -581 vlineto
          -7 3 -2 5 vhcurveto
          14 hlineto
          -107 callgsubr
          endchar
        </CharString>
        <CharString name="uni0915094D0924">
          255 -76 callsubr
          372 -99 callgsubr
          -153 -57 callsubr
          -299 -93 callsubr
          82 -4 hlineto
          -27 -20 -12 -32 -46 vvcurveto
          -96 vlineto
          119 callsubr
          31 -103 callgsubr
          -32 hlineto
          -51 -53 22 80 hvcurveto
          96 vlineto
          76 39 26 47 vhcurveto
          140 -99 callgsubr
          -384 vlineto
          -91 callsubr
          291 vlineto
          20 callsubr
          34 hlineto
          112 callgsubr
          -88 12 callsubr
          -39 -93 callsubr
          39 94 callgsubr
          90 169 callsubr
          -34 183 callsubr
          210 24 callsubr
          334 -106 callgsubr
          endchar
        </CharString>
        <CharString name="uni0915094D0924094D092F">
          859 1226 59 callgsubr
          115 24 vlineto
          75 50 35 91 hvcurveto
          7 39 callsubr
          -502 -191 rmoveto
          -28 -24 -5 -12 -20 hvcurveto
          65 -12 -49 39 -71 -5 callsubr
          541 hlineto
          43 callsubr
          -6 174 callsubr
          -928 224 -91 callgsubr
          339 -99 callgsubr
          -364 vlineto
          -101 callsubr
          -81 -53 -50 -83 hvcurveto
          -123 vlineto
          6 callsubr
          -3 callgsubr
          -90 callsubr
          hvcurveto
          348 vlineto
          20 callsubr
          39 hlineto
          65 37 -36 -64 2 hvcurveto
          -16 -21 -9 -29 -39 vvcurveto
          -139 vlineto
          -80 callsubr
          139 291 callgsubr
          -116 239 callgsubr
          -157 hlineto
          -7 3 -2 5 vhcurveto
          14 hlineto
          -107 callgsubr
          endchar
        </CharString>
        <CharString name="uni0915094D0924094D0930">
          491 858 390 rmoveto
          -4 hlineto
          344 callgsubr
          -24 -22 -3 -7 -18 hvcurveto
          -3 5 rlineto
          39 -19 -45 22 43 callgsubr
          463 -99 callgsubr
          -859 -60 callsubr
          339 -99 callgsubr
          -364 vlineto
          -101 callsubr
          -81 -53 -50 -83 hvcurveto
          -123 vlineto
          6 callsubr
          -3 callgsubr
          -90 callsubr
          hvcurveto
          348 vlineto
          20 callsubr
          39 hlineto
          45 31 -16 -33 16 hvcurveto
          1 -3 rlineto
          -27 -19 -16 -32 -45 vvcurveto
          113 callgsubr
          235 181 rlineto
          -182 vlineto
          -7 3 -2 5 vhcurveto
          14 hlineto
          -107 callgsubr
          endchar
        </CharString>
        <CharString name="uni0915094D0924094D0935">
          737 1105 226 rmoveto
          -101 callsubr
          -56 -43 -24 -43 -21 hvcurveto
          -158 hlineto
          -15 -14 -2 -3 -13 hvcurveto
          -1 4 -2 4 -2 3 rrcurveto
          39 -19 -45 22 43 callgsubr
          710 -99 callgsubr
          -1106 -60 callsubr
          339 -99 callgsubr
          -364 vlineto
          -101 callsubr
          -81 -53 -50 -83 hvcurveto
          -123 vlineto
          6 callsubr
          -3 callgsubr
          -90 callsubr
          hvcurveto
          348 vlineto
          20 callsubr
          39 hlineto
          45 31 -16 -33 16 hvcurveto
          2 -5 rlineto
          -34 -19 -21 -36 -60 vvcurveto
          -159 vlineto
          -80 callsubr
          159 291 callgsubr
          hlineto
          -3 -12 -1 -12 -14 vvcurveto
          -123 vlineto
          6 callsubr
          -3 callgsubr
          13 hlineto
          -107 callgsubr
          endchar
        </CharString>
        <CharString name="uni0915094D0925">
          621 1004 623 187 callsubr
          114 171 callsubr
          10 vlineto
          77 -46 36 -68 -70 -44 -36 -76 vhcurveto
          -34 vlineto
          -91 callsubr
          34 vlineto
          61 32 23 52 52 32 -24 -61 vhcurveto
          -10 9 callsubr
          -243 183 callsubr
          241 24 callsubr
          145 -106 callgsubr
          -532 -4 callgsubr
          339 -99 callgsubr
          -364 vlineto
          -101 callsubr
          -81 -53 -50 -83 hvcurveto
          -123 vlineto
          6 callsubr
          -3 callgsubr
          -90 callsubr
          hvcurveto
          260 vlineto
          20 callsubr
          113 -115 hlineto
          40 callgsubr
          136 194 callgsubr
          -157 hlineto
          -7 3 -2 5 vhcurveto
          14 hlineto
          -107 callgsubr
          endchar
        </CharString>
        <CharString name="uni0915094D0926">
          513 882 471 93 callsubr
          -144 hlineto
          -39 -32 -12 -22 -23 hvcurveto
          37 -20 -44 20 -51 -5 callsubr
          487 -99 callgsubr
          -883 -60 callsubr
          339 -99 callgsubr
          -364 vlineto
          -101 callsubr
          -81 -53 -50 -83 hvcurveto
          -123 vlineto
          6 callsubr
          -3 callgsubr
          -90 callsubr
          hvcurveto
          348 vlineto
          20 callsubr
          39 hlineto
          45 31 -16 -33 16 hvcurveto
          2 -5 rlineto
          -12 -21 -7 -26 -30 vvcurveto
          -98 vlineto
          -51 callgsubr
          endchar
        </CharString>
        <CharString name="uni0915094D0928">
          501 868 212 callgsubr
          -6 -5 0 -1 -6 hvcurveto
          75 -5 -52 44 -76 -5 callsubr
          473 -99 callgsubr
          -869 -60 callsubr
          339 -99 callgsubr
          -364 vlineto
          -101 callsubr
          -81 -53 -50 -83 hvcurveto
          -123 vlineto
          6 callsubr
          -3 callgsubr
          -90 callsubr
          hvcurveto
          348 vlineto
          20 callsubr
          39 hlineto
          65 37 -36 -63 2 hvcurveto
          -30 -15 -14 -29 -36 vvcurveto
          -20 6 -27 184 callsubr
          188 -99 callgsubr
          -324 vlineto
          -7 3 -2 5 vhcurveto
          14 hlineto
          -107 callgsubr
          endchar
        </CharString>
        <CharString name="uni0915094D0928.aTrad">
          227 228 123 rmoveto
          0 -26 -8 -30 -15 vhcurveto
          -26 -13 rlineto
          -36 -19 -17 -29 -30 vvcurveto
          -30 13 -26 29 -29 vhcurveto
          -4 4 2 -1 3 hhcurveto
          3 3 359 callsubr
          4 4 rlineto
          4 4 0 2 2 vvcurveto
          2 -1 2 -3 3 vhcurveto
          -22 22 -12 17 28 vvcurveto
          20 11 18 24 13 vhcurveto
          115 59 rlineto
          55 28 15 20 0 vvcurveto
          4 -158 hlineto
          -91 callsubr
          348 vlineto
          -37 callsubr
          -726 -4 callgsubr
          339 -99 callgsubr
          -334 341 callsubr
          91 -92 callsubr
          -81 -53 -50 -83 hvcurveto
          -93 vlineto
          6 callsubr
          24 hlineto
          endchar
        </CharString>
        <CharString name="uni0915094D092A">
          509 876 -15 callgsubr
          -395 195 callgsubr
          -593 168 -91 callgsubr
          339 -99 callgsubr
          -364 vlineto
          -101 callsubr
          -81 -53 -50 -83 hvcurveto
          -123 vlineto
          6 callsubr
          -3 callgsubr
          14 317 callgsubr
          -110 120 callgsubr
        </CharString>
</ttFont>
